<?xml version="1.0" encoding="UTF-8" standalone="no"?><svg xmlns="http://www.w3.org/2000/svg" xmlns:xlink="http://www.w3.org/1999/xlink" contentStyleType="text/css" height="209px" preserveAspectRatio="none" style="width:509px;height:209px;background:#FFFFFF;" version="1.1" viewBox="0 0 509 209" width="509px" zoomAndPan="magnify"><defs/><g><!--MD5=[2bef80756fcb456d4928384ca286af04]
cluster emulator--><g id="cluster_emulator"><path d="M378.5,102 L441.5,102 A3.75,3.75 0 0 1 444,104.5 L451,125.6094 L499.5,125.6094 A2.5,2.5 0 0 1 502,128.1094 L502,199.5 A2.5,2.5 0 0 1 499.5,202 L378.5,202 A2.5,2.5 0 0 1 376,199.5 L376,104.5 A2.5,2.5 0 0 1 378.5,102 " fill="none" style="stroke:#000000;stroke-width:1.5;"/><line style="stroke:#000000;stroke-width:1.5;" x1="376" x2="451" y1="125.6094" y2="125.6094"/><text fill="#000000" font-family="sans-serif" font-size="14" font-weight="bold" lengthAdjust="spacing" textLength="62" x="380" y="118.5332">emulator</text></g><!--MD5=[aeb5c996e2c3ad70795c522ec9c792ed]
class IGraphics--><g id="elem_IGraphics"><rect codeLine="12" fill="#F1F1F1" height="48" id="IGraphics" rx="2.5" ry="2.5" style="stroke:#181818;stroke-width:0.5;" width="93" x="392.5" y="138"/><ellipse cx="407.5" cy="154" fill="#B4A7E5" rx="11" ry="11" style="stroke:#181818;stroke-width:1.0;"/><path d="M408.4531,150.6406 L408.4531,157.2969 L410.1719,157.2969 Q410.7813,157.2969 411.0469,157.5313 Q411.3125,157.7656 411.3125,158.1563 Q411.3125,158.5313 411.0469,158.7656 Q410.7813,159 410.1719,159 L405.0313,159 Q404.4219,159 404.1563,158.7656 Q403.8906,158.5313 403.8906,158.1406 Q403.8906,157.7656 404.1563,157.5313 Q404.4219,157.2969 405.0313,157.2969 L406.75,157.2969 L406.75,150.6406 L405.0313,150.6406 Q404.4219,150.6406 404.1563,150.4063 Q403.8906,150.1719 403.8906,149.7813 Q403.8906,149.4063 404.1563,149.1719 Q404.4219,148.9375 405.0313,148.9375 L410.1719,148.9375 Q410.7813,148.9375 411.0469,149.1719 Q411.3125,149.4063 411.3125,149.7813 Q411.3125,150.1719 411.0469,150.4063 Q410.7813,150.6406 410.1719,150.6406 L408.4531,150.6406 Z " fill="#000000"/><text fill="#000000" font-family="sans-serif" font-size="14" font-style="italic" lengthAdjust="spacing" textLength="61" x="421.5" y="159.7285">IGraphics</text><line style="stroke:#181818;stroke-width:0.5;" x1="393.5" x2="484.5" y1="170" y2="170"/><line style="stroke:#181818;stroke-width:0.5;" x1="393.5" x2="484.5" y1="178" y2="178"/></g><!--MD5=[b23df18e5913473d13676736eddde131]
class IVideoOut--><g id="elem_IVideoOut"><rect codeLine="3" fill="#F1F1F1" height="48" id="IVideoOut" rx="2.5" ry="2.5" style="stroke:#181818;stroke-width:0.5;" width="95" x="165.5" y="7"/><ellipse cx="180.5" cy="23" fill="#B4A7E5" rx="11" ry="11" style="stroke:#181818;stroke-width:1.0;"/><path d="M181.4531,19.6406 L181.4531,26.2969 L183.1719,26.2969 Q183.7813,26.2969 184.0469,26.5313 Q184.3125,26.7656 184.3125,27.1563 Q184.3125,27.5313 184.0469,27.7656 Q183.7813,28 183.1719,28 L178.0313,28 Q177.4219,28 177.1563,27.7656 Q176.8906,27.5313 176.8906,27.1406 Q176.8906,26.7656 177.1563,26.5313 Q177.4219,26.2969 178.0313,26.2969 L179.75,26.2969 L179.75,19.6406 L178.0313,19.6406 Q177.4219,19.6406 177.1563,19.4063 Q176.8906,19.1719 176.8906,18.7813 Q176.8906,18.4063 177.1563,18.1719 Q177.4219,17.9375 178.0313,17.9375 L183.1719,17.9375 Q183.7813,17.9375 184.0469,18.1719 Q184.3125,18.4063 184.3125,18.7813 Q184.3125,19.1719 184.0469,19.4063 Q183.7813,19.6406 183.1719,19.6406 L181.4531,19.6406 Z " fill="#000000"/><text fill="#000000" font-family="sans-serif" font-size="14" font-style="italic" lengthAdjust="spacing" textLength="63" x="194.5" y="28.7285">IVideoOut</text><line style="stroke:#181818;stroke-width:0.5;" x1="166.5" x2="259.5" y1="39" y2="39"/><line style="stroke:#181818;stroke-width:0.5;" x1="166.5" x2="259.5" y1="47" y2="47"/></g><!--MD5=[4ebf855493d5a908733ae324ecacb2f2]
class VideoOut--><g id="elem_VideoOut"><rect codeLine="5" fill="#F1F1F1" height="58.7031" id="VideoOut" rx="2.5" ry="2.5" style="stroke:#181818;stroke-width:0.5;" width="94" x="166" y="132.5"/><ellipse cx="181" cy="153.8516" fill="#FF7700" rx="11" ry="11" style="stroke:#181818;stroke-width:1.0;"/><path d="M179.1094,158.4141 Q178.8906,158.6797 178.75,158.7578 Q178.6094,158.8359 178.4219,158.8359 Q178.0313,158.8359 177.7891,158.5703 Q177.5469,158.3047 177.5469,157.7109 L177.5469,156.5547 Q177.5469,155.9453 177.7891,155.6875 Q178.0313,155.4297 178.4219,155.4297 Q178.7188,155.4297 178.9219,155.5859 Q179.125,155.7422 179.2344,156.1094 Q179.3438,156.4766 179.4531,156.6172 Q179.7031,156.8672 180.3125,157.1328 Q180.9219,157.3984 181.6563,157.3984 Q182.7969,157.3984 183.5156,156.8672 Q183.9844,156.5391 183.9844,156.0703 Q183.9844,155.7578 183.7656,155.4766 Q183.5469,155.1953 183.0313,155.0234 Q182.7031,154.8984 181.5469,154.6797 Q180.1563,154.4141 179.4375,154.0547 Q178.7188,153.6953 178.3047,153.0313 Q177.8906,152.3672 177.8906,151.5859 Q177.8906,150.3672 178.9141,149.4531 Q179.9375,148.5391 181.5781,148.5391 Q182.2344,148.5391 182.7891,148.6797 Q183.3438,148.8203 183.8125,149.1172 Q184.1406,148.8047 184.4688,148.8047 Q184.8438,148.8047 185.0781,149.0625 Q185.3125,149.3203 185.3125,149.9297 L185.3125,151.2109 Q185.3125,151.8203 185.0781,152.0781 Q184.8438,152.3359 184.4688,152.3359 Q184.1563,152.3359 183.9219,152.1484 Q183.7344,152.0078 183.6484,151.5859 Q183.5625,151.1641 183.4219,150.9766 Q183.1719,150.6641 182.6953,150.4531 Q182.2188,150.2422 181.5781,150.2422 Q180.6563,150.2422 180.125,150.6641 Q179.5938,151.0859 179.5938,151.5547 Q179.5938,151.8672 179.8125,152.1641 Q180.0313,152.4609 180.4531,152.6328 Q180.7344,152.7422 182.0391,153 Q183.3438,153.2578 184.0469,153.5625 Q184.75,153.8672 185.2188,154.5234 Q185.6875,155.1797 185.6875,156.0859 Q185.6875,157.3516 184.7969,158.1016 Q183.6094,159.1016 181.7813,159.1016 Q181.0781,159.1016 180.4141,158.9297 Q179.75,158.7578 179.1094,158.4141 Z " fill="#000000"/><text fill="#000000" font-family="sans-serif" font-size="12" font-style="italic" lengthAdjust="spacing" textLength="66" x="193" y="149.957">«Singleton»</text><text fill="#000000" font-family="sans-serif" font-size="14" lengthAdjust="spacing" textLength="59" x="196.5" y="167.127">VideoOut</text><line style="stroke:#181818;stroke-width:0.5;" x1="167" x2="259" y1="175.2031" y2="175.2031"/><line style="stroke:#181818;stroke-width:0.5;" x1="167" x2="259" y1="183.2031" y2="183.2031"/></g><g id="elem_IVideoOutlol5"><ellipse cx="20" cy="31" fill="#F1F1F1" rx="5" ry="5" style="stroke:#181818;stroke-width:1.5;"/></g><text fill="#000000" font-family="sans-serif" font-size="14" lengthAdjust="spacing" textLength="28" x="6" y="50.5332">user</text><!--MD5=[c1d1e15c9b9b723c31b4727eb29d5e47]
reverse link IVideoOut to VideoOut--><g id="link_IVideoOut_VideoOut"><path codeLine="7" d="M213,75.09 C213,93.9 213,115.46 213,132.27 " fill="none" id="IVideoOut-backto-VideoOut" style="stroke:#181818;stroke-width:1.0;"/><polygon fill="none" points="206,75.06,213,55.06,220,75.06,206,75.06" style="stroke:#181818;stroke-width:1.0;"/></g><!--MD5=[71eeaf00991e10c8bc172b49c5e134f3]
link IVideoOutlol5 to IVideoOut--><g id="link_IVideoOutlol5_IVideoOut"><path d="M25.16,31 C44.82,31 116.38,31 165.28,31 " fill="none" id="IVideoOutlol5-IVideoOut" style="stroke:#181818;stroke-width:1.0;"/><text fill="#000000" font-family="sans-serif" font-size="13" lengthAdjust="spacing" textLength="104" x="43.25" y="24.4951">accessVideoOut()</text></g><!--MD5=[bf1a9fbf0a03308493fafe27f7c80f88]
reverse link VideoOut to IGraphics--><g id="link_VideoOut_IGraphics"><path codeLine="15" d="M273.37,162 C310.7,162 357.89,162 392.35,162 " fill="none" id="VideoOut-backto-IGraphics" style="stroke:#181818;stroke-width:1.0;"/><polygon fill="#181818" points="260.1,162,266.1,166,272.1,162,266.1,158,260.1,162" style="stroke:#181818;stroke-width:1.0;"/><text fill="#000000" font-family="sans-serif" font-size="13" lengthAdjust="spacing" textLength="96" x="278.25" y="155.4951">createGraphics()</text></g><!--MD5=[39378f205182c1ece1ae548316f29290]
@startuml
skinparam classAttributeIconSize 0

interface IVideoOut {
}
class VideoOut << (S,#FF7700) Singleton >> {}

IVideoOut <|- - VideoOut

user ()- IVideoOut : accessVideoOut()

package emulator{
interface IGraphics {}
}

VideoOut *- IGraphics : createGraphics()
@enduml

PlantUML version 1.2022.7(Mon Aug 22 19:01:30 CEST 2022)
(GPL source distribution)
Java Runtime: Java(TM) SE Runtime Environment
JVM: Java HotSpot(TM) 64-Bit Server VM
Default Encoding: Cp1252
Language: de
Country: DE
--></g></svg>