<?xml version="1.0" encoding="UTF-8" standalone="no"?><svg xmlns="http://www.w3.org/2000/svg" xmlns:xlink="http://www.w3.org/1999/xlink" contentStyleType="text/css" height="185px" preserveAspectRatio="none" style="width:291px;height:185px;background:#FFFFFF;" version="1.1" viewBox="0 0 291 185" width="291px" zoomAndPan="magnify"><defs/><g><path d="M8.5,65 L62.5,65 A3.75,3.75 0 0 1 65,67.5 L72,88.6094 L76.5,88.6094 A2.5,2.5 0 0 1 79,91.1094 L79,117.7188 A2.5,2.5 0 0 1 76.5,120.2188 L8.5,120.2188 A2.5,2.5 0 0 1 6,117.7188 L6,67.5 A2.5,2.5 0 0 1 8.5,65 " fill="#F1F1F1" style="stroke:#181818;stroke-width:0.5;"/><line style="stroke:#181818;stroke-width:0.5;" x1="6" x2="72" y1="88.6094" y2="88.6094"/><text fill="#000000" font-family="sans-serif" font-size="14" lengthAdjust="spacing" textLength="53" x="10" y="81.5332">Modules</text><!--MD5=[4a744fad89e9001364942c936eef9c88]
class psOff Emulator--><g id="elem_psOff Emulator"><rect codeLine="5" fill="#F1F1F1" height="171.2656" id="psOff Emulator" rx="2.5" ry="2.5" style="stroke:#181818;stroke-width:0.5;" width="170" x="114.5" y="7"/><ellipse cx="149.3" cy="23" fill="#ADD1B2" rx="11" ry="11" style="stroke:#181818;stroke-width:1.0;"/><path d="M152.0656,18.875 Q152.2219,18.6563 152.4094,18.5469 Q152.5969,18.4375 152.8156,18.4375 Q153.1906,18.4375 153.425,18.6953 Q153.6594,18.9531 153.6594,19.5625 L153.6594,21.0156 Q153.6594,21.625 153.425,21.8906 Q153.1906,22.1563 152.8156,22.1563 Q152.4719,22.1563 152.2688,21.9531 Q152.0656,21.7656 151.9563,21.25 Q151.9094,20.8906 151.7219,20.7031 Q151.3938,20.3281 150.7844,20.1094 Q150.175,19.8906 149.55,19.8906 Q148.7844,19.8906 148.1516,20.2188 Q147.5188,20.5469 147.0266,21.2969 Q146.5344,22.0469 146.5344,23.0781 L146.5344,24.1719 Q146.5344,25.4063 147.425,26.2266 Q148.3156,27.0469 149.9094,27.0469 Q150.8469,27.0469 151.5031,26.7969 Q151.8938,26.6406 152.3156,26.2031 Q152.5813,25.9375 152.7297,25.8594 Q152.8781,25.7813 153.0813,25.7813 Q153.4094,25.7813 153.6672,26.0391 Q153.925,26.2969 153.925,26.6406 Q153.925,26.9844 153.5813,27.3906 Q153.0813,27.9688 152.2844,28.2969 Q151.2063,28.75 149.9094,28.75 Q148.3938,28.75 147.1906,28.125 Q146.2063,27.625 145.5188,26.5547 Q144.8313,25.4844 144.8313,24.2031 L144.8313,23.0469 Q144.8313,21.7188 145.4484,20.5703 Q146.0656,19.4219 147.1594,18.8047 Q148.2531,18.1875 149.4875,18.1875 Q150.2219,18.1875 150.8703,18.3516 Q151.5188,18.5156 152.0656,18.875 Z " fill="#000000"/><text fill="#000000" font-family="sans-serif" font-size="14" lengthAdjust="spacing" textLength="94" x="167.7" y="28.7285">psOff Emulator</text><line style="stroke:#181818;stroke-width:0.5;" x1="115.5" x2="283.5" y1="39" y2="39"/><line style="stroke:#181818;stroke-width:0.5;" x1="115.5" x2="283.5" y1="47" y2="47"/><text fill="#000000" font-family="sans-serif" font-size="14" lengthAdjust="spacing" textLength="153" x="120.5" y="65.5332">+accessRuntimeLinker()</text><text fill="#000000" font-family="sans-serif" font-size="14" lengthAdjust="spacing" textLength="128" x="120.5" y="83.1426">+accessInitParams()</text><text fill="#000000" font-family="sans-serif" font-size="14" lengthAdjust="spacing" textLength="98" x="120.5" y="100.752">+accessTimer()</text><text fill="#000000" font-family="sans-serif" font-size="14" lengthAdjust="spacing" textLength="121" x="120.5" y="118.3613">+accessVideoOut()</text><text fill="#000000" font-family="sans-serif" font-size="14" lengthAdjust="spacing" textLength="141" x="120.5" y="135.9707">+accessFileManager()</text><text fill="#000000" font-family="sans-serif" font-size="14" lengthAdjust="spacing" textLength="139" x="120.5" y="153.5801">+accessGpuMemory()</text><text fill="#000000" font-family="sans-serif" font-size="14" lengthAdjust="spacing" textLength="158" x="120.5" y="171.1895">+accessSystemContent()</text></g><!--MD5=[e44d9e0e943906538a6cbbb1f4fb3e3b]
link Modules to psOff Emulator--><g id="link_Modules_psOff Emulator"><path codeLine="15" d="M79.3,92.5 C89.16,92.5 99.02,92.5 108.89,92.5 " fill="none" id="Modules-to-psOff Emulator" style="stroke:#181818;stroke-width:1.0;"/><polygon fill="#181818" points="114.04,92.5,105.04,88.5,109.04,92.5,105.04,96.5,114.04,92.5" style="stroke:#181818;stroke-width:1.0;"/></g><!--MD5=[d22f4656a79e4c1eca467a89a4553eae]
@startuml
skinparam classAttributeIconSize 0

package "Modules" {}

class "psOff Emulator"{
  +accessRuntimeLinker()
  +accessInitParams()
  +accessTimer()
  +accessVideoOut()
  +accessFileManager()
  +accessGpuMemory()
  +accessSystemContent()
}

Modules -> "psOff Emulator"
@enduml

PlantUML version 1.2022.7(Mon Aug 22 19:01:30 CEST 2022)
(GPL source distribution)
Java Runtime: Java(TM) SE Runtime Environment
JVM: Java HotSpot(TM) 64-Bit Server VM
Default Encoding: Cp1252
Language: de
Country: DE
--></g></svg>