<?xml version="1.0" encoding="UTF-8" standalone="no"?><svg xmlns="http://www.w3.org/2000/svg" xmlns:xlink="http://www.w3.org/1999/xlink" contentStyleType="text/css" height="762px" preserveAspectRatio="none" style="width:830px;height:762px;background:#FFFFFF;" version="1.1" viewBox="0 0 830 762" width="830px" zoomAndPan="magnify"><defs/><g><!--MD5=[67cd15ce44b6dd54f77054b62c31bf42]
cluster types--><g id="cluster_types"><path d="M8.5,655 L47.5,655 A3.75,3.75 0 0 1 50,657.5 L57,678.6094 L757.5,678.6094 A2.5,2.5 0 0 1 760,681.1094 L760,752.5 A2.5,2.5 0 0 1 757.5,755 L8.5,755 A2.5,2.5 0 0 1 6,752.5 L6,657.5 A2.5,2.5 0 0 1 8.5,655 " fill="none" style="stroke:#000000;stroke-width:1.5;"/><line style="stroke:#000000;stroke-width:1.5;" x1="6" x2="57" y1="678.6094" y2="678.6094"/><text fill="#000000" font-family="sans-serif" font-size="14" font-weight="bold" lengthAdjust="spacing" textLength="38" x="10" y="671.5332">types</text></g><!--MD5=[ca3b33e60920b15a0247e121ca1aa11d]
class TypeFile--><g id="elem_TypeFile"><rect codeLine="46" fill="#F1F1F1" height="48" id="TypeFile" rx="2.5" ry="2.5" style="stroke:#181818;stroke-width:0.5;" width="87" x="22.5" y="691"/><ellipse cx="37.5" cy="707" fill="#ADD1B2" rx="11" ry="11" style="stroke:#181818;stroke-width:1.0;"/><path d="M40.2656,702.875 Q40.4219,702.6563 40.6094,702.5469 Q40.7969,702.4375 41.0156,702.4375 Q41.3906,702.4375 41.625,702.6953 Q41.8594,702.9531 41.8594,703.5625 L41.8594,705.0156 Q41.8594,705.625 41.625,705.8906 Q41.3906,706.1563 41.0156,706.1563 Q40.6719,706.1563 40.4688,705.9531 Q40.2656,705.7656 40.1563,705.25 Q40.1094,704.8906 39.9219,704.7031 Q39.5938,704.3281 38.9844,704.1094 Q38.375,703.8906 37.75,703.8906 Q36.9844,703.8906 36.3516,704.2188 Q35.7188,704.5469 35.2266,705.2969 Q34.7344,706.0469 34.7344,707.0781 L34.7344,708.1719 Q34.7344,709.4063 35.625,710.2266 Q36.5156,711.0469 38.1094,711.0469 Q39.0469,711.0469 39.7031,710.7969 Q40.0938,710.6406 40.5156,710.2031 Q40.7813,709.9375 40.9297,709.8594 Q41.0781,709.7813 41.2813,709.7813 Q41.6094,709.7813 41.8672,710.0391 Q42.125,710.2969 42.125,710.6406 Q42.125,710.9844 41.7813,711.3906 Q41.2813,711.9688 40.4844,712.2969 Q39.4063,712.75 38.1094,712.75 Q36.5938,712.75 35.3906,712.125 Q34.4063,711.625 33.7188,710.5547 Q33.0313,709.4844 33.0313,708.2031 L33.0313,707.0469 Q33.0313,705.7188 33.6484,704.5703 Q34.2656,703.4219 35.3594,702.8047 Q36.4531,702.1875 37.6875,702.1875 Q38.4219,702.1875 39.0703,702.3516 Q39.7188,702.5156 40.2656,702.875 Z " fill="#000000"/><text fill="#000000" font-family="sans-serif" font-size="14" lengthAdjust="spacing" textLength="55" x="51.5" y="712.7285">TypeFile</text><line style="stroke:#181818;stroke-width:0.5;" x1="23.5" x2="108.5" y1="723" y2="723"/><line style="stroke:#181818;stroke-width:0.5;" x1="23.5" x2="108.5" y1="731" y2="731"/></g><!--MD5=[1b9d26e9befc1c60d2bcd01c20b47f47]
class TypeZero--><g id="elem_TypeZero"><rect codeLine="47" fill="#F1F1F1" height="48" id="TypeZero" rx="2.5" ry="2.5" style="stroke:#181818;stroke-width:0.5;" width="93" x="144.5" y="691"/><ellipse cx="159.5" cy="707" fill="#ADD1B2" rx="11" ry="11" style="stroke:#181818;stroke-width:1.0;"/><path d="M162.2656,702.875 Q162.4219,702.6563 162.6094,702.5469 Q162.7969,702.4375 163.0156,702.4375 Q163.3906,702.4375 163.625,702.6953 Q163.8594,702.9531 163.8594,703.5625 L163.8594,705.0156 Q163.8594,705.625 163.625,705.8906 Q163.3906,706.1563 163.0156,706.1563 Q162.6719,706.1563 162.4688,705.9531 Q162.2656,705.7656 162.1563,705.25 Q162.1094,704.8906 161.9219,704.7031 Q161.5938,704.3281 160.9844,704.1094 Q160.375,703.8906 159.75,703.8906 Q158.9844,703.8906 158.3516,704.2188 Q157.7188,704.5469 157.2266,705.2969 Q156.7344,706.0469 156.7344,707.0781 L156.7344,708.1719 Q156.7344,709.4063 157.625,710.2266 Q158.5156,711.0469 160.1094,711.0469 Q161.0469,711.0469 161.7031,710.7969 Q162.0938,710.6406 162.5156,710.2031 Q162.7813,709.9375 162.9297,709.8594 Q163.0781,709.7813 163.2813,709.7813 Q163.6094,709.7813 163.8672,710.0391 Q164.125,710.2969 164.125,710.6406 Q164.125,710.9844 163.7813,711.3906 Q163.2813,711.9688 162.4844,712.2969 Q161.4063,712.75 160.1094,712.75 Q158.5938,712.75 157.3906,712.125 Q156.4063,711.625 155.7188,710.5547 Q155.0313,709.4844 155.0313,708.2031 L155.0313,707.0469 Q155.0313,705.7188 155.6484,704.5703 Q156.2656,703.4219 157.3594,702.8047 Q158.4531,702.1875 159.6875,702.1875 Q160.4219,702.1875 161.0703,702.3516 Q161.7188,702.5156 162.2656,702.875 Z " fill="#000000"/><text fill="#000000" font-family="sans-serif" font-size="14" lengthAdjust="spacing" textLength="61" x="173.5" y="712.7285">TypeZero</text><line style="stroke:#181818;stroke-width:0.5;" x1="145.5" x2="236.5" y1="723" y2="723"/><line style="stroke:#181818;stroke-width:0.5;" x1="145.5" x2="236.5" y1="731" y2="731"/></g><!--MD5=[29be8a9f6443be129d4ad9f879c8b9fb]
class TypeRandom--><g id="elem_TypeRandom"><rect codeLine="48" fill="#F1F1F1" height="48" id="TypeRandom" rx="2.5" ry="2.5" style="stroke:#181818;stroke-width:0.5;" width="117" x="272.5" y="691"/><ellipse cx="287.5" cy="707" fill="#ADD1B2" rx="11" ry="11" style="stroke:#181818;stroke-width:1.0;"/><path d="M290.2656,702.875 Q290.4219,702.6563 290.6094,702.5469 Q290.7969,702.4375 291.0156,702.4375 Q291.3906,702.4375 291.625,702.6953 Q291.8594,702.9531 291.8594,703.5625 L291.8594,705.0156 Q291.8594,705.625 291.625,705.8906 Q291.3906,706.1563 291.0156,706.1563 Q290.6719,706.1563 290.4688,705.9531 Q290.2656,705.7656 290.1563,705.25 Q290.1094,704.8906 289.9219,704.7031 Q289.5938,704.3281 288.9844,704.1094 Q288.375,703.8906 287.75,703.8906 Q286.9844,703.8906 286.3516,704.2188 Q285.7188,704.5469 285.2266,705.2969 Q284.7344,706.0469 284.7344,707.0781 L284.7344,708.1719 Q284.7344,709.4063 285.625,710.2266 Q286.5156,711.0469 288.1094,711.0469 Q289.0469,711.0469 289.7031,710.7969 Q290.0938,710.6406 290.5156,710.2031 Q290.7813,709.9375 290.9297,709.8594 Q291.0781,709.7813 291.2813,709.7813 Q291.6094,709.7813 291.8672,710.0391 Q292.125,710.2969 292.125,710.6406 Q292.125,710.9844 291.7813,711.3906 Q291.2813,711.9688 290.4844,712.2969 Q289.4063,712.75 288.1094,712.75 Q286.5938,712.75 285.3906,712.125 Q284.4063,711.625 283.7188,710.5547 Q283.0313,709.4844 283.0313,708.2031 L283.0313,707.0469 Q283.0313,705.7188 283.6484,704.5703 Q284.2656,703.4219 285.3594,702.8047 Q286.4531,702.1875 287.6875,702.1875 Q288.4219,702.1875 289.0703,702.3516 Q289.7188,702.5156 290.2656,702.875 Z " fill="#000000"/><text fill="#000000" font-family="sans-serif" font-size="14" lengthAdjust="spacing" textLength="85" x="301.5" y="712.7285">TypeRandom</text><line style="stroke:#181818;stroke-width:0.5;" x1="273.5" x2="388.5" y1="723" y2="723"/><line style="stroke:#181818;stroke-width:0.5;" x1="273.5" x2="388.5" y1="731" y2="731"/></g><!--MD5=[6759ca68a2c1348eb8acab646cd6e4a3]
class TypeOut--><g id="elem_TypeOut"><rect codeLine="49" fill="#F1F1F1" height="48" id="TypeOut" rx="2.5" ry="2.5" style="stroke:#181818;stroke-width:0.5;" width="87" x="424.5" y="691"/><ellipse cx="439.5" cy="707" fill="#ADD1B2" rx="11" ry="11" style="stroke:#181818;stroke-width:1.0;"/><path d="M442.2656,702.875 Q442.4219,702.6563 442.6094,702.5469 Q442.7969,702.4375 443.0156,702.4375 Q443.3906,702.4375 443.625,702.6953 Q443.8594,702.9531 443.8594,703.5625 L443.8594,705.0156 Q443.8594,705.625 443.625,705.8906 Q443.3906,706.1563 443.0156,706.1563 Q442.6719,706.1563 442.4688,705.9531 Q442.2656,705.7656 442.1563,705.25 Q442.1094,704.8906 441.9219,704.7031 Q441.5938,704.3281 440.9844,704.1094 Q440.375,703.8906 439.75,703.8906 Q438.9844,703.8906 438.3516,704.2188 Q437.7188,704.5469 437.2266,705.2969 Q436.7344,706.0469 436.7344,707.0781 L436.7344,708.1719 Q436.7344,709.4063 437.625,710.2266 Q438.5156,711.0469 440.1094,711.0469 Q441.0469,711.0469 441.7031,710.7969 Q442.0938,710.6406 442.5156,710.2031 Q442.7813,709.9375 442.9297,709.8594 Q443.0781,709.7813 443.2813,709.7813 Q443.6094,709.7813 443.8672,710.0391 Q444.125,710.2969 444.125,710.6406 Q444.125,710.9844 443.7813,711.3906 Q443.2813,711.9688 442.4844,712.2969 Q441.4063,712.75 440.1094,712.75 Q438.5938,712.75 437.3906,712.125 Q436.4063,711.625 435.7188,710.5547 Q435.0313,709.4844 435.0313,708.2031 L435.0313,707.0469 Q435.0313,705.7188 435.6484,704.5703 Q436.2656,703.4219 437.3594,702.8047 Q438.4531,702.1875 439.6875,702.1875 Q440.4219,702.1875 441.0703,702.3516 Q441.7188,702.5156 442.2656,702.875 Z " fill="#000000"/><text fill="#000000" font-family="sans-serif" font-size="14" lengthAdjust="spacing" textLength="55" x="453.5" y="712.7285">TypeOut</text><line style="stroke:#181818;stroke-width:0.5;" x1="425.5" x2="510.5" y1="723" y2="723"/><line style="stroke:#181818;stroke-width:0.5;" x1="425.5" x2="510.5" y1="731" y2="731"/></g><!--MD5=[766c268f532a2b9bffeca2a7a735742c]
class TypeNull--><g id="elem_TypeNull"><rect codeLine="50" fill="#F1F1F1" height="48" id="TypeNull" rx="2.5" ry="2.5" style="stroke:#181818;stroke-width:0.5;" width="87" x="546.5" y="691"/><ellipse cx="561.5" cy="707" fill="#ADD1B2" rx="11" ry="11" style="stroke:#181818;stroke-width:1.0;"/><path d="M564.2656,702.875 Q564.4219,702.6563 564.6094,702.5469 Q564.7969,702.4375 565.0156,702.4375 Q565.3906,702.4375 565.625,702.6953 Q565.8594,702.9531 565.8594,703.5625 L565.8594,705.0156 Q565.8594,705.625 565.625,705.8906 Q565.3906,706.1563 565.0156,706.1563 Q564.6719,706.1563 564.4688,705.9531 Q564.2656,705.7656 564.1563,705.25 Q564.1094,704.8906 563.9219,704.7031 Q563.5938,704.3281 562.9844,704.1094 Q562.375,703.8906 561.75,703.8906 Q560.9844,703.8906 560.3516,704.2188 Q559.7188,704.5469 559.2266,705.2969 Q558.7344,706.0469 558.7344,707.0781 L558.7344,708.1719 Q558.7344,709.4063 559.625,710.2266 Q560.5156,711.0469 562.1094,711.0469 Q563.0469,711.0469 563.7031,710.7969 Q564.0938,710.6406 564.5156,710.2031 Q564.7813,709.9375 564.9297,709.8594 Q565.0781,709.7813 565.2813,709.7813 Q565.6094,709.7813 565.8672,710.0391 Q566.125,710.2969 566.125,710.6406 Q566.125,710.9844 565.7813,711.3906 Q565.2813,711.9688 564.4844,712.2969 Q563.4063,712.75 562.1094,712.75 Q560.5938,712.75 559.3906,712.125 Q558.4063,711.625 557.7188,710.5547 Q557.0313,709.4844 557.0313,708.2031 L557.0313,707.0469 Q557.0313,705.7188 557.6484,704.5703 Q558.2656,703.4219 559.3594,702.8047 Q560.4531,702.1875 561.6875,702.1875 Q562.4219,702.1875 563.0703,702.3516 Q563.7188,702.5156 564.2656,702.875 Z " fill="#000000"/><text fill="#000000" font-family="sans-serif" font-size="14" lengthAdjust="spacing" textLength="55" x="575.5" y="712.7285">TypeNull</text><line style="stroke:#181818;stroke-width:0.5;" x1="547.5" x2="632.5" y1="723" y2="723"/><line style="stroke:#181818;stroke-width:0.5;" x1="547.5" x2="632.5" y1="731" y2="731"/></g><!--MD5=[234ffc9c74ce56b0959d44d33dff794b]
class TypeIn--><g id="elem_TypeIn"><rect codeLine="51" fill="#F1F1F1" height="48" id="TypeIn" rx="2.5" ry="2.5" style="stroke:#181818;stroke-width:0.5;" width="75" x="668.5" y="691"/><ellipse cx="683.5" cy="707" fill="#ADD1B2" rx="11" ry="11" style="stroke:#181818;stroke-width:1.0;"/><path d="M686.2656,702.875 Q686.4219,702.6563 686.6094,702.5469 Q686.7969,702.4375 687.0156,702.4375 Q687.3906,702.4375 687.625,702.6953 Q687.8594,702.9531 687.8594,703.5625 L687.8594,705.0156 Q687.8594,705.625 687.625,705.8906 Q687.3906,706.1563 687.0156,706.1563 Q686.6719,706.1563 686.4688,705.9531 Q686.2656,705.7656 686.1563,705.25 Q686.1094,704.8906 685.9219,704.7031 Q685.5938,704.3281 684.9844,704.1094 Q684.375,703.8906 683.75,703.8906 Q682.9844,703.8906 682.3516,704.2188 Q681.7188,704.5469 681.2266,705.2969 Q680.7344,706.0469 680.7344,707.0781 L680.7344,708.1719 Q680.7344,709.4063 681.625,710.2266 Q682.5156,711.0469 684.1094,711.0469 Q685.0469,711.0469 685.7031,710.7969 Q686.0938,710.6406 686.5156,710.2031 Q686.7813,709.9375 686.9297,709.8594 Q687.0781,709.7813 687.2813,709.7813 Q687.6094,709.7813 687.8672,710.0391 Q688.125,710.2969 688.125,710.6406 Q688.125,710.9844 687.7813,711.3906 Q687.2813,711.9688 686.4844,712.2969 Q685.4063,712.75 684.1094,712.75 Q682.5938,712.75 681.3906,712.125 Q680.4063,711.625 679.7188,710.5547 Q679.0313,709.4844 679.0313,708.2031 L679.0313,707.0469 Q679.0313,705.7188 679.6484,704.5703 Q680.2656,703.4219 681.3594,702.8047 Q682.4531,702.1875 683.6875,702.1875 Q684.4219,702.1875 685.0703,702.3516 Q685.7188,702.5156 686.2656,702.875 Z " fill="#000000"/><text fill="#000000" font-family="sans-serif" font-size="14" lengthAdjust="spacing" textLength="43" x="697.5" y="712.7285">TypeIn</text><line style="stroke:#181818;stroke-width:0.5;" x1="669.5" x2="742.5" y1="723" y2="723"/><line style="stroke:#181818;stroke-width:0.5;" x1="669.5" x2="742.5" y1="731" y2="731"/></g><!--MD5=[22141557594efa459c6c167fe5db7e97]
class IFile--><g id="elem_IFile"><rect codeLine="3" fill="#F1F1F1" height="263.3125" id="IFile" rx="2.5" ry="2.5" style="stroke:#181818;stroke-width:0.5;" width="322" x="238" y="345"/><ellipse cx="381.25" cy="361" fill="#B4A7E5" rx="11" ry="11" style="stroke:#181818;stroke-width:1.0;"/><path d="M382.2031,357.6406 L382.2031,364.2969 L383.9219,364.2969 Q384.5313,364.2969 384.7969,364.5313 Q385.0625,364.7656 385.0625,365.1563 Q385.0625,365.5313 384.7969,365.7656 Q384.5313,366 383.9219,366 L378.7813,366 Q378.1719,366 377.9063,365.7656 Q377.6406,365.5313 377.6406,365.1406 Q377.6406,364.7656 377.9063,364.5313 Q378.1719,364.2969 378.7813,364.2969 L380.5,364.2969 L380.5,357.6406 L378.7813,357.6406 Q378.1719,357.6406 377.9063,357.4063 Q377.6406,357.1719 377.6406,356.7813 Q377.6406,356.4063 377.9063,356.1719 Q378.1719,355.9375 378.7813,355.9375 L383.9219,355.9375 Q384.5313,355.9375 384.7969,356.1719 Q385.0625,356.4063 385.0625,356.7813 Q385.0625,357.1719 384.7969,357.4063 Q384.5313,357.6406 383.9219,357.6406 L382.2031,357.6406 Z " fill="#000000"/><text fill="#000000" font-family="sans-serif" font-size="14" font-style="italic" lengthAdjust="spacing" textLength="27" x="401.75" y="366.7285">IFile</text><line style="stroke:#181818;stroke-width:0.5;" x1="239" x2="559" y1="377" y2="377"/><text fill="#000000" font-family="sans-serif" font-size="14" lengthAdjust="spacing" textLength="51" x="244" y="395.5332">-m_type</text><text fill="#000000" font-family="sans-serif" font-size="14" lengthAdjust="spacing" textLength="79" x="244" y="413.1426">#m_errCode</text><line style="stroke:#181818;stroke-width:1.0;" x1="239" x2="559" y1="420.2188" y2="420.2188"/><text fill="#000000" font-family="sans-serif" font-size="14" lengthAdjust="spacing" textLength="94" x="244" y="438.752">auto getType()</text><text fill="#000000" font-family="sans-serif" font-size="14" lengthAdjust="spacing" textLength="81" x="244" y="456.3613">auto getErr()</text><text fill="#000000" font-family="sans-serif" font-size="14" lengthAdjust="spacing" textLength="103" x="244" y="473.9707">void clearError()</text><text fill="#000000" font-family="sans-serif" font-size="14" lengthAdjust="spacing" textLength="4" x="244" y="491.5801"> </text><text fill="#000000" font-family="sans-serif" font-size="14" font-style="italic" lengthAdjust="spacing" textLength="225" x="244" y="530.7988">size_t read(void* buf, size_t nbytes)</text><text fill="#000000" font-family="sans-serif" font-size="14" font-style="italic" lengthAdjust="spacing" textLength="225" x="244" y="548.4082">size_t write(void* buf, size_t nbytes)</text><text fill="#000000" font-family="sans-serif" font-size="14" font-style="italic" lengthAdjust="spacing" textLength="68" x="244" y="566.0176">void sync()</text><text fill="#000000" font-family="sans-serif" font-size="14" font-style="italic" lengthAdjust="spacing" textLength="310" x="244" y="583.627">int64_t lseek(int64_t offset, SceWhence whence)</text><text fill="#000000" font-family="sans-serif" font-size="14" font-style="italic" lengthAdjust="spacing" textLength="103" x="244" y="601.2363">void* getNative()</text><line style="stroke:#181818;stroke-width:1.0;" x1="239" x2="371.5" y1="507.4609" y2="507.4609"/><text fill="#000000" font-family="sans-serif" font-size="14" lengthAdjust="spacing" textLength="55" x="371.5" y="512.6895">interface</text><line style="stroke:#181818;stroke-width:1.0;" x1="426.5" x2="559" y1="507.4609" y2="507.4609"/></g><!--MD5=[1b9482af0a7b5a1d14bb815edefd775b]
class IFileManager--><g id="elem_IFileManager"><rect codeLine="19" fill="#F1F1F1" height="276.9219" id="IFileManager" rx="2.5" ry="2.5" style="stroke:#181818;stroke-width:0.5;" width="345" x="478.5" y="7"/><ellipse cx="604.75" cy="23" fill="#B4A7E5" rx="11" ry="11" style="stroke:#181818;stroke-width:1.0;"/><path d="M605.7031,19.6406 L605.7031,26.2969 L607.4219,26.2969 Q608.0313,26.2969 608.2969,26.5313 Q608.5625,26.7656 608.5625,27.1563 Q608.5625,27.5313 608.2969,27.7656 Q608.0313,28 607.4219,28 L602.2813,28 Q601.6719,28 601.4063,27.7656 Q601.1406,27.5313 601.1406,27.1406 Q601.1406,26.7656 601.4063,26.5313 Q601.6719,26.2969 602.2813,26.2969 L604,26.2969 L604,19.6406 L602.2813,19.6406 Q601.6719,19.6406 601.4063,19.4063 Q601.1406,19.1719 601.1406,18.7813 Q601.1406,18.4063 601.4063,18.1719 Q601.6719,17.9375 602.2813,17.9375 L607.4219,17.9375 Q608.0313,17.9375 608.2969,18.1719 Q608.5625,18.4063 608.5625,18.7813 Q608.5625,19.1719 608.2969,19.4063 Q608.0313,19.6406 607.4219,19.6406 L605.7031,19.6406 Z " fill="#000000"/><text fill="#000000" font-family="sans-serif" font-size="14" font-style="italic" lengthAdjust="spacing" textLength="84" x="625.25" y="28.7285">IFileManager</text><line style="stroke:#181818;stroke-width:0.5;" x1="479.5" x2="822.5" y1="39" y2="39"/><line style="stroke:#181818;stroke-width:0.5;" x1="479.5" x2="822.5" y1="47" y2="47"/><text fill="#000000" font-family="sans-serif" font-size="14" font-style="italic" lengthAdjust="spacing" textLength="333" x="484.5" y="65.5332">std::optional&lt;std::filesystem::path&gt; getMappedPath()</text><text fill="#000000" font-family="sans-serif" font-size="14" font-style="italic" lengthAdjust="spacing" textLength="135" x="484.5" y="83.1426">void addMountPoint()</text><text fill="#000000" font-family="sans-serif" font-size="14" font-style="italic" lengthAdjust="spacing" textLength="231" x="484.5" y="100.752">std::filesystem::path getMountPoint()</text><text fill="#000000" font-family="sans-serif" font-size="14" font-style="italic" lengthAdjust="spacing" textLength="142" x="484.5" y="118.3613">void clearMountPoint()</text><text fill="#000000" font-family="sans-serif" font-size="14" font-style="italic" lengthAdjust="spacing" textLength="144" x="484.5" y="135.9707">void setGameFilesDir()</text><text fill="#000000" font-family="sans-serif" font-size="14" font-style="italic" lengthAdjust="spacing" textLength="330" x="484.5" y="153.5801">std::filesystem::path const&amp; getGameFilesDir() const</text><text fill="#000000" font-family="sans-serif" font-size="14" font-style="italic" lengthAdjust="spacing" textLength="76" x="484.5" y="171.1895">int addFile()</text><text fill="#000000" font-family="sans-serif" font-size="14" font-style="italic" lengthAdjust="spacing" textLength="117" x="484.5" y="188.7988">int addDirIterator()</text><text fill="#000000" font-family="sans-serif" font-size="14" font-style="italic" lengthAdjust="spacing" textLength="85" x="484.5" y="206.4082">void remove()</text><text fill="#000000" font-family="sans-serif" font-size="14" font-style="italic" lengthAdjust="spacing" textLength="113" x="484.5" y="224.0176">IFile* accessFile()</text><text fill="#000000" font-family="sans-serif" font-size="14" lengthAdjust="spacing" textLength="4" x="484.5" y="241.627"> </text><text fill="#000000" font-family="sans-serif" font-size="14" font-style="italic" lengthAdjust="spacing" textLength="86" x="484.5" y="259.2363">int getDents()</text><text fill="#000000" font-family="sans-serif" font-size="14" font-style="italic" lengthAdjust="spacing" textLength="188" x="484.5" y="276.8457">std::filesystem::path getPath()</text></g><!--MD5=[39c2281ae53c3ff3a0b7fb6db148b969]
class FileManager--><g id="elem_FileManager"><rect codeLine="35" fill="#F1F1F1" height="58.7031" id="FileManager" rx="2.5" ry="2.5" style="stroke:#181818;stroke-width:0.5;" width="111" x="595.5" y="447"/><ellipse cx="610.5" cy="468.3516" fill="#FF7700" rx="11" ry="11" style="stroke:#181818;stroke-width:1.0;"/><path d="M608.6094,472.9141 Q608.3906,473.1797 608.25,473.2578 Q608.1094,473.3359 607.9219,473.3359 Q607.5313,473.3359 607.2891,473.0703 Q607.0469,472.8047 607.0469,472.2109 L607.0469,471.0547 Q607.0469,470.4453 607.2891,470.1875 Q607.5313,469.9297 607.9219,469.9297 Q608.2188,469.9297 608.4219,470.0859 Q608.625,470.2422 608.7344,470.6094 Q608.8438,470.9766 608.9531,471.1172 Q609.2031,471.3672 609.8125,471.6328 Q610.4219,471.8984 611.1563,471.8984 Q612.2969,471.8984 613.0156,471.3672 Q613.4844,471.0391 613.4844,470.5703 Q613.4844,470.2578 613.2656,469.9766 Q613.0469,469.6953 612.5313,469.5234 Q612.2031,469.3984 611.0469,469.1797 Q609.6563,468.9141 608.9375,468.5547 Q608.2188,468.1953 607.8047,467.5313 Q607.3906,466.8672 607.3906,466.0859 Q607.3906,464.8672 608.4141,463.9531 Q609.4375,463.0391 611.0781,463.0391 Q611.7344,463.0391 612.2891,463.1797 Q612.8438,463.3203 613.3125,463.6172 Q613.6406,463.3047 613.9688,463.3047 Q614.3438,463.3047 614.5781,463.5625 Q614.8125,463.8203 614.8125,464.4297 L614.8125,465.7109 Q614.8125,466.3203 614.5781,466.5781 Q614.3438,466.8359 613.9688,466.8359 Q613.6563,466.8359 613.4219,466.6484 Q613.2344,466.5078 613.1484,466.0859 Q613.0625,465.6641 612.9219,465.4766 Q612.6719,465.1641 612.1953,464.9531 Q611.7188,464.7422 611.0781,464.7422 Q610.1563,464.7422 609.625,465.1641 Q609.0938,465.5859 609.0938,466.0547 Q609.0938,466.3672 609.3125,466.6641 Q609.5313,466.9609 609.9531,467.1328 Q610.2344,467.2422 611.5391,467.5 Q612.8438,467.7578 613.5469,468.0625 Q614.25,468.3672 614.7188,469.0234 Q615.1875,469.6797 615.1875,470.5859 Q615.1875,471.8516 614.2969,472.6016 Q613.1094,473.6016 611.2813,473.6016 Q610.5781,473.6016 609.9141,473.4297 Q609.25,473.2578 608.6094,472.9141 Z " fill="#000000"/><text fill="#000000" font-family="sans-serif" font-size="12" font-style="italic" lengthAdjust="spacing" textLength="66" x="631" y="464.457">«Singleton»</text><text fill="#000000" font-family="sans-serif" font-size="14" lengthAdjust="spacing" textLength="79" x="624.5" y="481.627">FileManager</text><line style="stroke:#181818;stroke-width:0.5;" x1="596.5" x2="705.5" y1="489.7031" y2="489.7031"/><line style="stroke:#181818;stroke-width:0.5;" x1="596.5" x2="705.5" y1="497.7031" y2="497.7031"/></g><g id="elem_IFileManagerlol7"><ellipse cx="316" cy="145.5" fill="#F1F1F1" rx="5" ry="5" style="stroke:#181818;stroke-width:1.5;"/></g><text fill="#000000" font-family="sans-serif" font-size="14" lengthAdjust="spacing" textLength="28" x="302" y="165.0332">user</text><g id="elem_IFilelol10"><ellipse cx="112" cy="476.5" fill="#F1F1F1" rx="5" ry="5" style="stroke:#181818;stroke-width:1.5;"/></g><text fill="#000000" font-family="sans-serif" font-size="14" lengthAdjust="spacing" textLength="28" x="98" y="496.0332">user</text><!--MD5=[3aea5e35d21936b04d594cd12df1a6a7]
reverse link IFileManager to FileManager--><g id="link_IFileManager_FileManager"><path codeLine="39" d="M651,304.13 C651,358.69 651,414.26 651,446.77 " fill="none" id="IFileManager-backto-FileManager" style="stroke:#181818;stroke-width:1.0;"/><polygon fill="none" points="644,304.12,651,284.12,658,304.12,644,304.12" style="stroke:#181818;stroke-width:1.0;"/></g><!--MD5=[94aea27e6ff59bd6cca8c31ecbf7e2bc]
link IFile to FileManager--><g id="link_IFile_FileManager"><path codeLine="40" d="M560.44,476.5 C567.73,476.5 575.03,476.5 582.33,476.5 " fill="none" id="IFile-to-FileManager" style="stroke:#181818;stroke-width:1.0;"/><polygon fill="#181818" points="595.46,476.5,589.46,472.5,583.46,476.5,589.46,480.5,595.46,476.5" style="stroke:#181818;stroke-width:1.0;"/><text fill="#000000" font-family="sans-serif" font-size="13" lengthAdjust="spacing" textLength="5" x="567.8685" y="473.6335">*</text></g><!--MD5=[3cbee91f8e39a225871006da8b1b5eea]
link IFileManagerlol7 to IFileManager--><g id="link_IFileManagerlol7_IFileManager"><path d="M321.26,145.5 C340.37,145.5 408.59,145.5 478.07,145.5 " fill="none" id="IFileManagerlol7-IFileManager" style="stroke:#181818;stroke-width:1.0;"/><text fill="#000000" font-family="sans-serif" font-size="13" lengthAdjust="spacing" textLength="121" x="339.25" y="138.9951">accessFileManager()</text></g><!--MD5=[36115bde92acffd377b3e2dbc102f76e]
link IFilelol10 to IFile--><g id="link_IFilelol10_IFile"><path d="M117.23,476.5 C133.26,476.5 183.93,476.5 237.97,476.5 " fill="none" id="IFilelol10-IFile" style="stroke:#181818;stroke-width:1.0;"/><text fill="#000000" font-family="sans-serif" font-size="13" lengthAdjust="spacing" textLength="84" x="135.5" y="469.9951">createType_*()</text></g><!--MD5=[ff836487fa967cdd3458406e45de241c]
reverse link IFile to TypeFile--><g id="link_IFile_TypeFile"><path codeLine="54" d="M220.97,578.57 C188.59,599.67 155.94,622.88 127,647 C111.29,660.09 95.81,677.17 84.37,690.8 " fill="none" id="IFile-backto-TypeFile" style="stroke:#181818;stroke-width:1.0;"/><polygon fill="none" points="217.25,572.64,237.86,567.73,224.81,584.42,217.25,572.64" style="stroke:#181818;stroke-width:1.0;"/></g><!--MD5=[022a8643d4c170dd7ddae2b6f0e770c6]
reverse link IFile to TypeZero--><g id="link_IFile_TypeZero"><path codeLine="55" d="M270.71,623.36 C247.66,649.57 226.3,673.86 211.5,690.69 " fill="none" id="IFile-backto-TypeZero" style="stroke:#181818;stroke-width:1.0;"/><polygon fill="none" points="265.58,618.6,284.05,608.2,276.1,627.84,265.58,618.6" style="stroke:#181818;stroke-width:1.0;"/></g><!--MD5=[1ba617d6b7dda200d94688e2d5ded860]
reverse link IFile to TypeRandom--><g id="link_IFile_TypeRandom"><path codeLine="56" d="M355.8,627.73 C348.75,652.26 342.27,674.8 337.7,690.69 " fill="none" id="IFile-backto-TypeRandom" style="stroke:#181818;stroke-width:1.0;"/><polygon fill="none" points="349.17,625.49,361.42,608.2,362.62,629.36,349.17,625.49" style="stroke:#181818;stroke-width:1.0;"/></g><!--MD5=[057748cadf570674ce5c91c38c7cce10]
reverse link IFile to TypeOut--><g id="link_IFile_TypeOut"><path codeLine="57" d="M442.83,627.73 C449.99,652.26 456.56,674.8 461.2,690.69 " fill="none" id="IFile-backto-TypeOut" style="stroke:#181818;stroke-width:1.0;"/><polygon fill="none" points="436.01,629.36,437.13,608.2,449.45,625.44,436.01,629.36" style="stroke:#181818;stroke-width:1.0;"/></g><!--MD5=[f96a261bfd682d1593912374af7fd327]
reverse link IFile to TypeNull--><g id="link_IFile_TypeNull"><path codeLine="58" d="M517.39,624.1 C538.33,650.02 557.71,674.02 571.17,690.69 " fill="none" id="IFile-backto-TypeNull" style="stroke:#181818;stroke-width:1.0;"/><polygon fill="none" points="511.68,628.16,504.56,608.2,522.57,619.36,511.68,628.16" style="stroke:#181818;stroke-width:1.0;"/></g><!--MD5=[7de614fe698dc3ddd0bbc83df52243f8]
reverse link IFile to TypeIn--><g id="link_IFile_TypeIn"><path codeLine="59" d="M577.17,607.48 C577.45,607.65 577.73,607.83 578,608 C609.16,627.55 622.56,623.67 651,647 C666.36,659.6 680.5,677.02 690.6,690.94 " fill="none" id="IFile-backto-TypeIn" style="stroke:#181818;stroke-width:1.0;"/><polygon fill="none" points="573.31,613.32,560.26,596.62,580.87,601.54,573.31,613.32" style="stroke:#181818;stroke-width:1.0;"/></g><!--MD5=[383a59d0b1df1ce2fc6b49aaa91e87a9]
@startuml
skinparam classAttributeIconSize 0

interface IFile{
  -m_type
  #m_errCode
  - - -
  auto getType()
  auto getErr()
  void clearError()

  - - interface - -
  {abstract} size_t read(void* buf, size_t nbytes)
  {abstract} size_t write(void* buf, size_t nbytes)
  {abstract} void sync()
  {abstract} int64_t lseek(int64_t offset, SceWhence whence)
  {abstract} void* getNative()
}

interface IFileManager{
  {abstract} std::optional<std::filesystem::path> getMappedPath()
  {abstract} void addMountPoint()
  {abstract} std::filesystem::path getMountPoint()
  {abstract} void clearMountPoint()
  {abstract} void setGameFilesDir()
  {abstract} std::filesystem::path const& getGameFilesDir() const
  {abstract} int addFile()
  {abstract} int addDirIterator()
  {abstract} void remove()
  {abstract} IFile* accessFile()

  {abstract} int getDents()
  {abstract} std::filesystem::path getPath()
}

class FileManager << (S,#FF7700) Singleton >>{

}

IFileManager <|- - FileManager
IFile "*"-* FileManager

user ()- IFileManager : accessFileManager()
user ()- IFile : createType_*()

package types <<Folder>> {
  class TypeFile{}
  class TypeZero{}
  class TypeRandom{}
  class TypeOut{}
  class TypeNull{}
  class TypeIn{}
}

IFile <|- - TypeFile
IFile <|- - TypeZero
IFile <|- - TypeRandom
IFile <|- - TypeOut
IFile <|- - TypeNull
IFile <|- - TypeIn
@enduml

PlantUML version 1.2022.7(Mon Aug 22 19:01:30 CEST 2022)
(GPL source distribution)
Java Runtime: Java(TM) SE Runtime Environment
JVM: Java HotSpot(TM) 64-Bit Server VM
Default Encoding: Cp1252
Language: de
Country: DE
--></g></svg>