<?xml version="1.0" encoding="UTF-8" standalone="no"?><svg xmlns="http://www.w3.org/2000/svg" xmlns:xlink="http://www.w3.org/1999/xlink" contentStyleType="text/css" height="621px" preserveAspectRatio="none" style="width:1130px;height:621px;background:#FFFFFF;" version="1.1" viewBox="0 0 1130 621" width="1130px" zoomAndPan="magnify"><defs/><g><!--MD5=[2bef80756fcb456d4928384ca286af04]
cluster emulator--><g id="cluster_emulator"><path d="M278.5,102 L341.5,102 A3.75,3.75 0 0 1 344,104.5 L351,125.6094 L1120.5,125.6094 A2.5,2.5 0 0 1 1123,128.1094 L1123,611.5 A2.5,2.5 0 0 1 1120.5,614 L278.5,614 A2.5,2.5 0 0 1 276,611.5 L276,104.5 A2.5,2.5 0 0 1 278.5,102 " fill="none" style="stroke:#000000;stroke-width:1.5;"/><line style="stroke:#000000;stroke-width:1.5;" x1="276" x2="351" y1="125.6094" y2="125.6094"/><text fill="#000000" font-family="sans-serif" font-size="14" font-weight="bold" lengthAdjust="spacing" textLength="62" x="280" y="118.5332">emulator</text></g><!--MD5=[d2cdea4240e3cfbe1757d5df2e40a270]
class Graphics--><g id="elem_Graphics"><rect codeLine="12" fill="#F1F1F1" height="48" id="Graphics" rx="2.5" ry="2.5" style="stroke:#181818;stroke-width:0.5;" width="89" x="394.5" y="388"/><ellipse cx="409.5" cy="404" fill="#ADD1B2" rx="11" ry="11" style="stroke:#181818;stroke-width:1.0;"/><path d="M412.2656,399.875 Q412.4219,399.6563 412.6094,399.5469 Q412.7969,399.4375 413.0156,399.4375 Q413.3906,399.4375 413.625,399.6953 Q413.8594,399.9531 413.8594,400.5625 L413.8594,402.0156 Q413.8594,402.625 413.625,402.8906 Q413.3906,403.1563 413.0156,403.1563 Q412.6719,403.1563 412.4688,402.9531 Q412.2656,402.7656 412.1563,402.25 Q412.1094,401.8906 411.9219,401.7031 Q411.5938,401.3281 410.9844,401.1094 Q410.375,400.8906 409.75,400.8906 Q408.9844,400.8906 408.3516,401.2188 Q407.7188,401.5469 407.2266,402.2969 Q406.7344,403.0469 406.7344,404.0781 L406.7344,405.1719 Q406.7344,406.4063 407.625,407.2266 Q408.5156,408.0469 410.1094,408.0469 Q411.0469,408.0469 411.7031,407.7969 Q412.0938,407.6406 412.5156,407.2031 Q412.7813,406.9375 412.9297,406.8594 Q413.0781,406.7813 413.2813,406.7813 Q413.6094,406.7813 413.8672,407.0391 Q414.125,407.2969 414.125,407.6406 Q414.125,407.9844 413.7813,408.3906 Q413.2813,408.9688 412.4844,409.2969 Q411.4063,409.75 410.1094,409.75 Q408.5938,409.75 407.3906,409.125 Q406.4063,408.625 405.7188,407.5547 Q405.0313,406.4844 405.0313,405.2031 L405.0313,404.0469 Q405.0313,402.7188 405.6484,401.5703 Q406.2656,400.4219 407.3594,399.8047 Q408.4531,399.1875 409.6875,399.1875 Q410.4219,399.1875 411.0703,399.3516 Q411.7188,399.5156 412.2656,399.875 Z " fill="#000000"/><text fill="#000000" font-family="sans-serif" font-size="14" lengthAdjust="spacing" textLength="57" x="423.5" y="409.7285">Graphics</text><line style="stroke:#181818;stroke-width:0.5;" x1="395.5" x2="482.5" y1="420" y2="420"/><line style="stroke:#181818;stroke-width:0.5;" x1="395.5" x2="482.5" y1="428" y2="428"/></g><!--MD5=[aeb5c996e2c3ad70795c522ec9c792ed]
class IGraphics--><g id="elem_IGraphics"><rect codeLine="13" fill="#F1F1F1" height="48" id="IGraphics" rx="2.5" ry="2.5" style="stroke:#181818;stroke-width:0.5;" width="93" x="392.5" y="182"/><ellipse cx="407.5" cy="198" fill="#B4A7E5" rx="11" ry="11" style="stroke:#181818;stroke-width:1.0;"/><path d="M408.4531,194.6406 L408.4531,201.2969 L410.1719,201.2969 Q410.7813,201.2969 411.0469,201.5313 Q411.3125,201.7656 411.3125,202.1563 Q411.3125,202.5313 411.0469,202.7656 Q410.7813,203 410.1719,203 L405.0313,203 Q404.4219,203 404.1563,202.7656 Q403.8906,202.5313 403.8906,202.1406 Q403.8906,201.7656 404.1563,201.5313 Q404.4219,201.2969 405.0313,201.2969 L406.75,201.2969 L406.75,194.6406 L405.0313,194.6406 Q404.4219,194.6406 404.1563,194.4063 Q403.8906,194.1719 403.8906,193.7813 Q403.8906,193.4063 404.1563,193.1719 Q404.4219,192.9375 405.0313,192.9375 L410.1719,192.9375 Q410.7813,192.9375 411.0469,193.1719 Q411.3125,193.4063 411.3125,193.7813 Q411.3125,194.1719 411.0469,194.4063 Q410.7813,194.6406 410.1719,194.6406 L408.4531,194.6406 Z " fill="#000000"/><text fill="#000000" font-family="sans-serif" font-size="14" font-style="italic" lengthAdjust="spacing" textLength="61" x="421.5" y="203.7285">IGraphics</text><line style="stroke:#181818;stroke-width:0.5;" x1="393.5" x2="484.5" y1="214" y2="214"/><line style="stroke:#181818;stroke-width:0.5;" x1="393.5" x2="484.5" y1="222" y2="222"/></g><!--MD5=[08857f5f734705466f35c6a4db27ff27]
class IManager--><g id="elem_IManager"><rect codeLine="15" fill="#F1F1F1" height="136.0469" id="IManager" rx="2.5" ry="2.5" style="stroke:#181818;stroke-width:0.5;" width="187" x="565.5" y="138"/><ellipse cx="624.25" cy="154" fill="#B4A7E5" rx="11" ry="11" style="stroke:#181818;stroke-width:1.0;"/><path d="M625.2031,150.6406 L625.2031,157.2969 L626.9219,157.2969 Q627.5313,157.2969 627.7969,157.5313 Q628.0625,157.7656 628.0625,158.1563 Q628.0625,158.5313 627.7969,158.7656 Q627.5313,159 626.9219,159 L621.7813,159 Q621.1719,159 620.9063,158.7656 Q620.6406,158.5313 620.6406,158.1406 Q620.6406,157.7656 620.9063,157.5313 Q621.1719,157.2969 621.7813,157.2969 L623.5,157.2969 L623.5,150.6406 L621.7813,150.6406 Q621.1719,150.6406 620.9063,150.4063 Q620.6406,150.1719 620.6406,149.7813 Q620.6406,149.4063 620.9063,149.1719 Q621.1719,148.9375 621.7813,148.9375 L626.9219,148.9375 Q627.5313,148.9375 627.7969,149.1719 Q628.0625,149.4063 628.0625,149.7813 Q628.0625,150.1719 627.7969,150.4063 Q627.5313,150.6406 626.9219,150.6406 L625.2031,150.6406 Z " fill="#000000"/><text fill="#000000" font-family="sans-serif" font-size="14" font-style="italic" lengthAdjust="spacing" textLength="61" x="644.75" y="159.7285">IManager</text><line style="stroke:#181818;stroke-width:0.5;" x1="566.5" x2="751.5" y1="170" y2="170"/><line style="stroke:#181818;stroke-width:0.5;" x1="566.5" x2="751.5" y1="178" y2="178"/><text fill="#000000" font-family="sans-serif" font-size="14" lengthAdjust="spacing" textLength="156" x="571.5" y="196.5332">accessShaderManager()</text><text fill="#000000" font-family="sans-serif" font-size="14" lengthAdjust="spacing" textLength="160" x="571.5" y="214.1426">accessPipelineManager()</text><text fill="#000000" font-family="sans-serif" font-size="14" lengthAdjust="spacing" textLength="162" x="571.5" y="231.752">accessSamplerManager()</text><text fill="#000000" font-family="sans-serif" font-size="14" lengthAdjust="spacing" textLength="175" x="571.5" y="249.3613">accessDescriptorManager()</text><text fill="#000000" font-family="sans-serif" font-size="14" lengthAdjust="spacing" textLength="131" x="571.5" y="266.9707">accessGpuMemory()</text></g><!--MD5=[b24ed8d4ae84bae9290d9aab401637c7]
class Manager--><g id="elem_Manager"><rect codeLine="23" fill="#F1F1F1" height="48" id="Manager" rx="2.5" ry="2.5" style="stroke:#181818;stroke-width:0.5;" width="88" x="519" y="388"/><ellipse cx="534" cy="404" fill="#ADD1B2" rx="11" ry="11" style="stroke:#181818;stroke-width:1.0;"/><path d="M536.7656,399.875 Q536.9219,399.6563 537.1094,399.5469 Q537.2969,399.4375 537.5156,399.4375 Q537.8906,399.4375 538.125,399.6953 Q538.3594,399.9531 538.3594,400.5625 L538.3594,402.0156 Q538.3594,402.625 538.125,402.8906 Q537.8906,403.1563 537.5156,403.1563 Q537.1719,403.1563 536.9688,402.9531 Q536.7656,402.7656 536.6563,402.25 Q536.6094,401.8906 536.4219,401.7031 Q536.0938,401.3281 535.4844,401.1094 Q534.875,400.8906 534.25,400.8906 Q533.4844,400.8906 532.8516,401.2188 Q532.2188,401.5469 531.7266,402.2969 Q531.2344,403.0469 531.2344,404.0781 L531.2344,405.1719 Q531.2344,406.4063 532.125,407.2266 Q533.0156,408.0469 534.6094,408.0469 Q535.5469,408.0469 536.2031,407.7969 Q536.5938,407.6406 537.0156,407.2031 Q537.2813,406.9375 537.4297,406.8594 Q537.5781,406.7813 537.7813,406.7813 Q538.1094,406.7813 538.3672,407.0391 Q538.625,407.2969 538.625,407.6406 Q538.625,407.9844 538.2813,408.3906 Q537.7813,408.9688 536.9844,409.2969 Q535.9063,409.75 534.6094,409.75 Q533.0938,409.75 531.8906,409.125 Q530.9063,408.625 530.2188,407.5547 Q529.5313,406.4844 529.5313,405.2031 L529.5313,404.0469 Q529.5313,402.7188 530.1484,401.5703 Q530.7656,400.4219 531.8594,399.8047 Q532.9531,399.1875 534.1875,399.1875 Q534.9219,399.1875 535.5703,399.3516 Q536.2188,399.5156 536.7656,399.875 Z " fill="#000000"/><text fill="#000000" font-family="sans-serif" font-size="14" lengthAdjust="spacing" textLength="56" x="548" y="409.7285">Manager</text><line style="stroke:#181818;stroke-width:0.5;" x1="520" x2="606" y1="420" y2="420"/><line style="stroke:#181818;stroke-width:0.5;" x1="520" x2="606" y1="428" y2="428"/></g><!--MD5=[53dddc048605cc14553da56a615dca6a]
class IManagerChild--><g id="elem_IManagerChild"><rect codeLine="25" fill="#F1F1F1" height="153.6563" id="IManagerChild" rx="2.5" ry="2.5" style="stroke:#181818;stroke-width:0.5;" width="123" x="642.5" y="335"/><ellipse cx="657.5" cy="351" fill="#ADD1B2" rx="11" ry="11" style="stroke:#181818;stroke-width:1.0;"/><path d="M660.2656,346.875 Q660.4219,346.6563 660.6094,346.5469 Q660.7969,346.4375 661.0156,346.4375 Q661.3906,346.4375 661.625,346.6953 Q661.8594,346.9531 661.8594,347.5625 L661.8594,349.0156 Q661.8594,349.625 661.625,349.8906 Q661.3906,350.1563 661.0156,350.1563 Q660.6719,350.1563 660.4688,349.9531 Q660.2656,349.7656 660.1563,349.25 Q660.1094,348.8906 659.9219,348.7031 Q659.5938,348.3281 658.9844,348.1094 Q658.375,347.8906 657.75,347.8906 Q656.9844,347.8906 656.3516,348.2188 Q655.7188,348.5469 655.2266,349.2969 Q654.7344,350.0469 654.7344,351.0781 L654.7344,352.1719 Q654.7344,353.4063 655.625,354.2266 Q656.5156,355.0469 658.1094,355.0469 Q659.0469,355.0469 659.7031,354.7969 Q660.0938,354.6406 660.5156,354.2031 Q660.7813,353.9375 660.9297,353.8594 Q661.0781,353.7813 661.2813,353.7813 Q661.6094,353.7813 661.8672,354.0391 Q662.125,354.2969 662.125,354.6406 Q662.125,354.9844 661.7813,355.3906 Q661.2813,355.9688 660.4844,356.2969 Q659.4063,356.75 658.1094,356.75 Q656.5938,356.75 655.3906,356.125 Q654.4063,355.625 653.7188,354.5547 Q653.0313,353.4844 653.0313,352.2031 L653.0313,351.0469 Q653.0313,349.7188 653.6484,348.5703 Q654.2656,347.4219 655.3594,346.8047 Q656.4531,346.1875 657.6875,346.1875 Q658.4219,346.1875 659.0703,346.3516 Q659.7188,346.5156 660.2656,346.875 Z " fill="#000000"/><text fill="#000000" font-family="sans-serif" font-size="14" lengthAdjust="spacing" textLength="91" x="671.5" y="356.7285">IManagerChild</text><line style="stroke:#181818;stroke-width:0.5;" x1="643.5" x2="764.5" y1="367" y2="367"/><text fill="#000000" font-family="sans-serif" font-size="14" lengthAdjust="spacing" textLength="59" x="648.5" y="385.5332">VkDevice</text><text fill="#000000" font-family="sans-serif" font-size="14" lengthAdjust="spacing" textLength="111" x="648.5" y="403.1426">VkPhysicalDevice</text><text fill="#000000" font-family="sans-serif" font-size="14" lengthAdjust="spacing" textLength="69" x="648.5" y="420.752">VkInstance</text><text fill="#000000" font-family="sans-serif" font-size="14" lengthAdjust="spacing" textLength="56" x="648.5" y="438.3613">manager</text><line style="stroke:#181818;stroke-width:1.0;" x1="643.5" x2="764.5" y1="445.4375" y2="445.4375"/><text fill="#000000" font-family="sans-serif" font-size="14" lengthAdjust="spacing" textLength="102" x="648.5" y="463.9707">void setDevice()</text><text fill="#000000" font-family="sans-serif" font-size="14" lengthAdjust="spacing" textLength="101" x="648.5" y="481.5801">void setParent()</text></g><!--MD5=[a01a2f90e054eaf8ae2060987a8a9eab]
class ShaderManager--><g id="elem_ShaderManager"><rect codeLine="35" fill="#F1F1F1" height="48" id="ShaderManager" rx="2.5" ry="2.5" style="stroke:#181818;stroke-width:0.5;" width="134" x="292" y="550"/><ellipse cx="307" cy="566" fill="#ADD1B2" rx="11" ry="11" style="stroke:#181818;stroke-width:1.0;"/><path d="M309.7656,561.875 Q309.9219,561.6563 310.1094,561.5469 Q310.2969,561.4375 310.5156,561.4375 Q310.8906,561.4375 311.125,561.6953 Q311.3594,561.9531 311.3594,562.5625 L311.3594,564.0156 Q311.3594,564.625 311.125,564.8906 Q310.8906,565.1563 310.5156,565.1563 Q310.1719,565.1563 309.9688,564.9531 Q309.7656,564.7656 309.6563,564.25 Q309.6094,563.8906 309.4219,563.7031 Q309.0938,563.3281 308.4844,563.1094 Q307.875,562.8906 307.25,562.8906 Q306.4844,562.8906 305.8516,563.2188 Q305.2188,563.5469 304.7266,564.2969 Q304.2344,565.0469 304.2344,566.0781 L304.2344,567.1719 Q304.2344,568.4063 305.125,569.2266 Q306.0156,570.0469 307.6094,570.0469 Q308.5469,570.0469 309.2031,569.7969 Q309.5938,569.6406 310.0156,569.2031 Q310.2813,568.9375 310.4297,568.8594 Q310.5781,568.7813 310.7813,568.7813 Q311.1094,568.7813 311.3672,569.0391 Q311.625,569.2969 311.625,569.6406 Q311.625,569.9844 311.2813,570.3906 Q310.7813,570.9688 309.9844,571.2969 Q308.9063,571.75 307.6094,571.75 Q306.0938,571.75 304.8906,571.125 Q303.9063,570.625 303.2188,569.5547 Q302.5313,568.4844 302.5313,567.2031 L302.5313,566.0469 Q302.5313,564.7188 303.1484,563.5703 Q303.7656,562.4219 304.8594,561.8047 Q305.9531,561.1875 307.1875,561.1875 Q307.9219,561.1875 308.5703,561.3516 Q309.2188,561.5156 309.7656,561.875 Z " fill="#000000"/><text fill="#000000" font-family="sans-serif" font-size="14" lengthAdjust="spacing" textLength="102" x="321" y="571.7285">ShaderManager</text><line style="stroke:#181818;stroke-width:0.5;" x1="293" x2="425" y1="582" y2="582"/><line style="stroke:#181818;stroke-width:0.5;" x1="293" x2="425" y1="590" y2="590"/></g><!--MD5=[d0de52967147877c4c853614cba1e65d]
class PipelineManager--><g id="elem_PipelineManager"><rect codeLine="36" fill="#F1F1F1" height="48" id="PipelineManager" rx="2.5" ry="2.5" style="stroke:#181818;stroke-width:0.5;" width="138" x="461" y="550"/><ellipse cx="476" cy="566" fill="#ADD1B2" rx="11" ry="11" style="stroke:#181818;stroke-width:1.0;"/><path d="M478.7656,561.875 Q478.9219,561.6563 479.1094,561.5469 Q479.2969,561.4375 479.5156,561.4375 Q479.8906,561.4375 480.125,561.6953 Q480.3594,561.9531 480.3594,562.5625 L480.3594,564.0156 Q480.3594,564.625 480.125,564.8906 Q479.8906,565.1563 479.5156,565.1563 Q479.1719,565.1563 478.9688,564.9531 Q478.7656,564.7656 478.6563,564.25 Q478.6094,563.8906 478.4219,563.7031 Q478.0938,563.3281 477.4844,563.1094 Q476.875,562.8906 476.25,562.8906 Q475.4844,562.8906 474.8516,563.2188 Q474.2188,563.5469 473.7266,564.2969 Q473.2344,565.0469 473.2344,566.0781 L473.2344,567.1719 Q473.2344,568.4063 474.125,569.2266 Q475.0156,570.0469 476.6094,570.0469 Q477.5469,570.0469 478.2031,569.7969 Q478.5938,569.6406 479.0156,569.2031 Q479.2813,568.9375 479.4297,568.8594 Q479.5781,568.7813 479.7813,568.7813 Q480.1094,568.7813 480.3672,569.0391 Q480.625,569.2969 480.625,569.6406 Q480.625,569.9844 480.2813,570.3906 Q479.7813,570.9688 478.9844,571.2969 Q477.9063,571.75 476.6094,571.75 Q475.0938,571.75 473.8906,571.125 Q472.9063,570.625 472.2188,569.5547 Q471.5313,568.4844 471.5313,567.2031 L471.5313,566.0469 Q471.5313,564.7188 472.1484,563.5703 Q472.7656,562.4219 473.8594,561.8047 Q474.9531,561.1875 476.1875,561.1875 Q476.9219,561.1875 477.5703,561.3516 Q478.2188,561.5156 478.7656,561.875 Z " fill="#000000"/><text fill="#000000" font-family="sans-serif" font-size="14" lengthAdjust="spacing" textLength="106" x="490" y="571.7285">PipelineManager</text><line style="stroke:#181818;stroke-width:0.5;" x1="462" x2="598" y1="582" y2="582"/><line style="stroke:#181818;stroke-width:0.5;" x1="462" x2="598" y1="590" y2="590"/></g><!--MD5=[189b8fb5cd857268e4864a43bc32b687]
class SamplerManager--><g id="elem_SamplerManager"><rect codeLine="37" fill="#F1F1F1" height="48" id="SamplerManager" rx="2.5" ry="2.5" style="stroke:#181818;stroke-width:0.5;" width="140" x="634" y="550"/><ellipse cx="649" cy="566" fill="#ADD1B2" rx="11" ry="11" style="stroke:#181818;stroke-width:1.0;"/><path d="M651.7656,561.875 Q651.9219,561.6563 652.1094,561.5469 Q652.2969,561.4375 652.5156,561.4375 Q652.8906,561.4375 653.125,561.6953 Q653.3594,561.9531 653.3594,562.5625 L653.3594,564.0156 Q653.3594,564.625 653.125,564.8906 Q652.8906,565.1563 652.5156,565.1563 Q652.1719,565.1563 651.9688,564.9531 Q651.7656,564.7656 651.6563,564.25 Q651.6094,563.8906 651.4219,563.7031 Q651.0938,563.3281 650.4844,563.1094 Q649.875,562.8906 649.25,562.8906 Q648.4844,562.8906 647.8516,563.2188 Q647.2188,563.5469 646.7266,564.2969 Q646.2344,565.0469 646.2344,566.0781 L646.2344,567.1719 Q646.2344,568.4063 647.125,569.2266 Q648.0156,570.0469 649.6094,570.0469 Q650.5469,570.0469 651.2031,569.7969 Q651.5938,569.6406 652.0156,569.2031 Q652.2813,568.9375 652.4297,568.8594 Q652.5781,568.7813 652.7813,568.7813 Q653.1094,568.7813 653.3672,569.0391 Q653.625,569.2969 653.625,569.6406 Q653.625,569.9844 653.2813,570.3906 Q652.7813,570.9688 651.9844,571.2969 Q650.9063,571.75 649.6094,571.75 Q648.0938,571.75 646.8906,571.125 Q645.9063,570.625 645.2188,569.5547 Q644.5313,568.4844 644.5313,567.2031 L644.5313,566.0469 Q644.5313,564.7188 645.1484,563.5703 Q645.7656,562.4219 646.8594,561.8047 Q647.9531,561.1875 649.1875,561.1875 Q649.9219,561.1875 650.5703,561.3516 Q651.2188,561.5156 651.7656,561.875 Z " fill="#000000"/><text fill="#000000" font-family="sans-serif" font-size="14" lengthAdjust="spacing" textLength="108" x="663" y="571.7285">SamplerManager</text><line style="stroke:#181818;stroke-width:0.5;" x1="635" x2="773" y1="582" y2="582"/><line style="stroke:#181818;stroke-width:0.5;" x1="635" x2="773" y1="590" y2="590"/></g><!--MD5=[8b687836a5617c2f857380bc0a6f7c24]
class DescriptorManager--><g id="elem_DescriptorManager"><rect codeLine="38" fill="#F1F1F1" height="48" id="DescriptorManager" rx="2.5" ry="2.5" style="stroke:#181818;stroke-width:0.5;" width="153" x="809.5" y="550"/><ellipse cx="824.5" cy="566" fill="#ADD1B2" rx="11" ry="11" style="stroke:#181818;stroke-width:1.0;"/><path d="M827.2656,561.875 Q827.4219,561.6563 827.6094,561.5469 Q827.7969,561.4375 828.0156,561.4375 Q828.3906,561.4375 828.625,561.6953 Q828.8594,561.9531 828.8594,562.5625 L828.8594,564.0156 Q828.8594,564.625 828.625,564.8906 Q828.3906,565.1563 828.0156,565.1563 Q827.6719,565.1563 827.4688,564.9531 Q827.2656,564.7656 827.1563,564.25 Q827.1094,563.8906 826.9219,563.7031 Q826.5938,563.3281 825.9844,563.1094 Q825.375,562.8906 824.75,562.8906 Q823.9844,562.8906 823.3516,563.2188 Q822.7188,563.5469 822.2266,564.2969 Q821.7344,565.0469 821.7344,566.0781 L821.7344,567.1719 Q821.7344,568.4063 822.625,569.2266 Q823.5156,570.0469 825.1094,570.0469 Q826.0469,570.0469 826.7031,569.7969 Q827.0938,569.6406 827.5156,569.2031 Q827.7813,568.9375 827.9297,568.8594 Q828.0781,568.7813 828.2813,568.7813 Q828.6094,568.7813 828.8672,569.0391 Q829.125,569.2969 829.125,569.6406 Q829.125,569.9844 828.7813,570.3906 Q828.2813,570.9688 827.4844,571.2969 Q826.4063,571.75 825.1094,571.75 Q823.5938,571.75 822.3906,571.125 Q821.4063,570.625 820.7188,569.5547 Q820.0313,568.4844 820.0313,567.2031 L820.0313,566.0469 Q820.0313,564.7188 820.6484,563.5703 Q821.2656,562.4219 822.3594,561.8047 Q823.4531,561.1875 824.6875,561.1875 Q825.4219,561.1875 826.0703,561.3516 Q826.7188,561.5156 827.2656,561.875 Z " fill="#000000"/><text fill="#000000" font-family="sans-serif" font-size="14" lengthAdjust="spacing" textLength="121" x="838.5" y="571.7285">DescriptorManager</text><line style="stroke:#181818;stroke-width:0.5;" x1="810.5" x2="961.5" y1="582" y2="582"/><line style="stroke:#181818;stroke-width:0.5;" x1="810.5" x2="961.5" y1="590" y2="590"/></g><!--MD5=[118983c6240d32360d5551157e6c3e6e]
class GpuMemory--><g id="elem_GpuMemory"><rect codeLine="39" fill="#F1F1F1" height="48" id="GpuMemory" rx="2.5" ry="2.5" style="stroke:#181818;stroke-width:0.5;" width="109" x="997.5" y="550"/><ellipse cx="1012.5" cy="566" fill="#ADD1B2" rx="11" ry="11" style="stroke:#181818;stroke-width:1.0;"/><path d="M1015.2656,561.875 Q1015.4219,561.6563 1015.6094,561.5469 Q1015.7969,561.4375 1016.0156,561.4375 Q1016.3906,561.4375 1016.625,561.6953 Q1016.8594,561.9531 1016.8594,562.5625 L1016.8594,564.0156 Q1016.8594,564.625 1016.625,564.8906 Q1016.3906,565.1563 1016.0156,565.1563 Q1015.6719,565.1563 1015.4688,564.9531 Q1015.2656,564.7656 1015.1563,564.25 Q1015.1094,563.8906 1014.9219,563.7031 Q1014.5938,563.3281 1013.9844,563.1094 Q1013.375,562.8906 1012.75,562.8906 Q1011.9844,562.8906 1011.3516,563.2188 Q1010.7188,563.5469 1010.2266,564.2969 Q1009.7344,565.0469 1009.7344,566.0781 L1009.7344,567.1719 Q1009.7344,568.4063 1010.625,569.2266 Q1011.5156,570.0469 1013.1094,570.0469 Q1014.0469,570.0469 1014.7031,569.7969 Q1015.0938,569.6406 1015.5156,569.2031 Q1015.7813,568.9375 1015.9297,568.8594 Q1016.0781,568.7813 1016.2813,568.7813 Q1016.6094,568.7813 1016.8672,569.0391 Q1017.125,569.2969 1017.125,569.6406 Q1017.125,569.9844 1016.7813,570.3906 Q1016.2813,570.9688 1015.4844,571.2969 Q1014.4063,571.75 1013.1094,571.75 Q1011.5938,571.75 1010.3906,571.125 Q1009.4063,570.625 1008.7188,569.5547 Q1008.0313,568.4844 1008.0313,567.2031 L1008.0313,566.0469 Q1008.0313,564.7188 1008.6484,563.5703 Q1009.2656,562.4219 1010.3594,561.8047 Q1011.4531,561.1875 1012.6875,561.1875 Q1013.4219,561.1875 1014.0703,561.3516 Q1014.7188,561.5156 1015.2656,561.875 Z " fill="#000000"/><text fill="#000000" font-family="sans-serif" font-size="14" lengthAdjust="spacing" textLength="77" x="1026.5" y="571.7285">GpuMemory</text><line style="stroke:#181818;stroke-width:0.5;" x1="998.5" x2="1105.5" y1="582" y2="582"/><line style="stroke:#181818;stroke-width:0.5;" x1="998.5" x2="1105.5" y1="590" y2="590"/></g><!--MD5=[b23df18e5913473d13676736eddde131]
class IVideoOut--><g id="elem_IVideoOut"><rect codeLine="3" fill="#F1F1F1" height="48" id="IVideoOut" rx="2.5" ry="2.5" style="stroke:#181818;stroke-width:0.5;" width="95" x="165.5" y="7"/><ellipse cx="180.5" cy="23" fill="#B4A7E5" rx="11" ry="11" style="stroke:#181818;stroke-width:1.0;"/><path d="M181.4531,19.6406 L181.4531,26.2969 L183.1719,26.2969 Q183.7813,26.2969 184.0469,26.5313 Q184.3125,26.7656 184.3125,27.1563 Q184.3125,27.5313 184.0469,27.7656 Q183.7813,28 183.1719,28 L178.0313,28 Q177.4219,28 177.1563,27.7656 Q176.8906,27.5313 176.8906,27.1406 Q176.8906,26.7656 177.1563,26.5313 Q177.4219,26.2969 178.0313,26.2969 L179.75,26.2969 L179.75,19.6406 L178.0313,19.6406 Q177.4219,19.6406 177.1563,19.4063 Q176.8906,19.1719 176.8906,18.7813 Q176.8906,18.4063 177.1563,18.1719 Q177.4219,17.9375 178.0313,17.9375 L183.1719,17.9375 Q183.7813,17.9375 184.0469,18.1719 Q184.3125,18.4063 184.3125,18.7813 Q184.3125,19.1719 184.0469,19.4063 Q183.7813,19.6406 183.1719,19.6406 L181.4531,19.6406 Z " fill="#000000"/><text fill="#000000" font-family="sans-serif" font-size="14" font-style="italic" lengthAdjust="spacing" textLength="63" x="194.5" y="28.7285">IVideoOut</text><line style="stroke:#181818;stroke-width:0.5;" x1="166.5" x2="259.5" y1="39" y2="39"/><line style="stroke:#181818;stroke-width:0.5;" x1="166.5" x2="259.5" y1="47" y2="47"/></g><!--MD5=[4ebf855493d5a908733ae324ecacb2f2]
class VideoOut--><g id="elem_VideoOut"><rect codeLine="5" fill="#F1F1F1" height="58.7031" id="VideoOut" rx="2.5" ry="2.5" style="stroke:#181818;stroke-width:0.5;" width="94" x="166" y="176.5"/><ellipse cx="181" cy="197.8516" fill="#FF7700" rx="11" ry="11" style="stroke:#181818;stroke-width:1.0;"/><path d="M179.1094,202.4141 Q178.8906,202.6797 178.75,202.7578 Q178.6094,202.8359 178.4219,202.8359 Q178.0313,202.8359 177.7891,202.5703 Q177.5469,202.3047 177.5469,201.7109 L177.5469,200.5547 Q177.5469,199.9453 177.7891,199.6875 Q178.0313,199.4297 178.4219,199.4297 Q178.7188,199.4297 178.9219,199.5859 Q179.125,199.7422 179.2344,200.1094 Q179.3438,200.4766 179.4531,200.6172 Q179.7031,200.8672 180.3125,201.1328 Q180.9219,201.3984 181.6563,201.3984 Q182.7969,201.3984 183.5156,200.8672 Q183.9844,200.5391 183.9844,200.0703 Q183.9844,199.7578 183.7656,199.4766 Q183.5469,199.1953 183.0313,199.0234 Q182.7031,198.8984 181.5469,198.6797 Q180.1563,198.4141 179.4375,198.0547 Q178.7188,197.6953 178.3047,197.0313 Q177.8906,196.3672 177.8906,195.5859 Q177.8906,194.3672 178.9141,193.4531 Q179.9375,192.5391 181.5781,192.5391 Q182.2344,192.5391 182.7891,192.6797 Q183.3438,192.8203 183.8125,193.1172 Q184.1406,192.8047 184.4688,192.8047 Q184.8438,192.8047 185.0781,193.0625 Q185.3125,193.3203 185.3125,193.9297 L185.3125,195.2109 Q185.3125,195.8203 185.0781,196.0781 Q184.8438,196.3359 184.4688,196.3359 Q184.1563,196.3359 183.9219,196.1484 Q183.7344,196.0078 183.6484,195.5859 Q183.5625,195.1641 183.4219,194.9766 Q183.1719,194.6641 182.6953,194.4531 Q182.2188,194.2422 181.5781,194.2422 Q180.6563,194.2422 180.125,194.6641 Q179.5938,195.0859 179.5938,195.5547 Q179.5938,195.8672 179.8125,196.1641 Q180.0313,196.4609 180.4531,196.6328 Q180.7344,196.7422 182.0391,197 Q183.3438,197.2578 184.0469,197.5625 Q184.75,197.8672 185.2188,198.5234 Q185.6875,199.1797 185.6875,200.0859 Q185.6875,201.3516 184.7969,202.1016 Q183.6094,203.1016 181.7813,203.1016 Q181.0781,203.1016 180.4141,202.9297 Q179.75,202.7578 179.1094,202.4141 Z " fill="#000000"/><text fill="#000000" font-family="sans-serif" font-size="12" font-style="italic" lengthAdjust="spacing" textLength="66" x="193" y="193.957">«Singleton»</text><text fill="#000000" font-family="sans-serif" font-size="14" lengthAdjust="spacing" textLength="59" x="196.5" y="211.127">VideoOut</text><line style="stroke:#181818;stroke-width:0.5;" x1="167" x2="259" y1="219.2031" y2="219.2031"/><line style="stroke:#181818;stroke-width:0.5;" x1="167" x2="259" y1="227.2031" y2="227.2031"/></g><g id="elem_IVideoOutlol5"><ellipse cx="20" cy="31" fill="#F1F1F1" rx="5" ry="5" style="stroke:#181818;stroke-width:1.5;"/></g><text fill="#000000" font-family="sans-serif" font-size="14" lengthAdjust="spacing" textLength="28" x="6" y="50.5332">user</text><!--MD5=[c1d1e15c9b9b723c31b4727eb29d5e47]
reverse link IVideoOut to VideoOut--><g id="link_IVideoOut_VideoOut"><path codeLine="7" d="M213,75.69 C213,107.22 213,148.89 213,176.29 " fill="none" id="IVideoOut-backto-VideoOut" style="stroke:#181818;stroke-width:1.0;"/><polygon fill="none" points="206,75.33,213,55.33,220,75.33,206,75.33" style="stroke:#181818;stroke-width:1.0;"/></g><!--MD5=[71eeaf00991e10c8bc172b49c5e134f3]
link IVideoOutlol5 to IVideoOut--><g id="link_IVideoOutlol5_IVideoOut"><path d="M25.16,31 C44.82,31 116.38,31 165.28,31 " fill="none" id="IVideoOutlol5-IVideoOut" style="stroke:#181818;stroke-width:1.0;"/><text fill="#000000" font-family="sans-serif" font-size="13" lengthAdjust="spacing" textLength="104" x="43.25" y="24.4951">accessVideoOut()</text></g><!--MD5=[bf1a9fbf0a03308493fafe27f7c80f88]
reverse link VideoOut to IGraphics--><g id="link_VideoOut_IGraphics"><path codeLine="42" d="M273.37,206 C310.7,206 357.89,206 392.35,206 " fill="none" id="VideoOut-backto-IGraphics" style="stroke:#181818;stroke-width:1.0;"/><polygon fill="#181818" points="260.1,206,266.1,210,272.1,206,266.1,202,260.1,206" style="stroke:#181818;stroke-width:1.0;"/><text fill="#000000" font-family="sans-serif" font-size="13" lengthAdjust="spacing" textLength="96" x="278.25" y="199.4951">createGraphics()</text></g><!--MD5=[a5106019692e596ac4dd7b2d28f7a2c1]
reverse link IGraphics to Graphics--><g id="link_IGraphics_Graphics"><path codeLine="43" d="M439,250.13 C439,292.12 439,354.35 439,387.77 " fill="none" id="IGraphics-backto-Graphics" style="stroke:#181818;stroke-width:1.0;"/><polygon fill="none" points="432,250,439,230,446,250,432,250" style="stroke:#181818;stroke-width:1.0;"/></g><!--MD5=[44f556508ebdb6820d40edfec024c752]
reverse link IManager to Manager--><g id="link_IManager_Manager"><path codeLine="45" d="M618.78,292.47 C602.42,327.23 584.83,364.62 573.87,387.91 " fill="none" id="IManager-backto-Manager" style="stroke:#181818;stroke-width:1.0;"/><polygon fill="none" points="612.58,289.2,627.43,274.08,625.25,295.16,612.58,289.2" style="stroke:#181818;stroke-width:1.0;"/></g><!--MD5=[d7792f1f7dc45467b17ca921515ab4ac]
reverse link Graphics to Manager--><g id="link_Graphics_Manager"><path codeLine="46" d="M496.83,412 C504.2,412 511.57,412 518.94,412 " fill="none" id="Graphics-backto-Manager" style="stroke:#181818;stroke-width:1.0;"/><polygon fill="#181818" points="483.56,412,489.56,416,495.56,412,489.56,408,483.56,412" style="stroke:#181818;stroke-width:1.0;"/><text fill="#000000" font-family="sans-serif" font-size="13" lengthAdjust="spacing" textLength="7" x="504.0629" y="408.1992">1</text></g><!--MD5=[909a14a262a84bd16a0948c8ed2a89b8]
reverse link Manager to IManagerChild--><g id="link_Manager_IManagerChild"><path codeLine="48" d="M620.27,412 C627.6,412 634.94,412 642.28,412 " fill="none" id="Manager-backto-IManagerChild" style="stroke:#181818;stroke-width:1.0;"/><polygon fill="#181818" points="607.06,412,613.06,416,619.06,412,613.06,408,607.06,412" style="stroke:#181818;stroke-width:1.0;"/><text fill="#000000" font-family="sans-serif" font-size="13" lengthAdjust="spacing" textLength="7" x="614.9371" y="408.1992">1</text><text fill="#000000" font-family="sans-serif" font-size="13" lengthAdjust="spacing" textLength="7" x="627.3313" y="408.5625">n</text></g><!--MD5=[ad11f078c536c8890d5797d9a66f6adc]
link IManager to IManagerChild--><g id="link_IManager_IManagerChild"><path codeLine="50" d="M673.8,274.08 C677.17,289.38 680.81,305.88 684.35,321.94 " fill="none" id="IManager-to-IManagerChild" style="stroke:#181818;stroke-width:1.0;"/><polygon fill="none" points="687.17,334.69,689.7844,327.9695,684.5864,322.9714,681.972,329.6919,687.17,334.69" style="stroke:#181818;stroke-width:1.0;"/></g><!--MD5=[f8bc1e409509b1f507962d889f5bb26e]
reverse link IManagerChild to ShaderManager--><g id="link_IManagerChild_ShaderManager"><path codeLine="52" d="M625.55,488.67 C625.37,488.78 625.18,488.89 625,489 C607.56,499.36 499.07,532.12 426.14,553.54 " fill="none" id="IManagerChild-backto-ShaderManager" style="stroke:#181818;stroke-width:1.0;"/><polygon fill="none" points="621.85,482.72,642.3,477.16,629.78,494.26,621.85,482.72" style="stroke:#181818;stroke-width:1.0;"/></g><!--MD5=[9ad3e92f57cd174b442364271d1df12a]
reverse link IManagerChild to PipelineManager--><g id="link_IManagerChild_PipelineManager"><path codeLine="53" d="M627.37,486.81 C626.58,487.54 625.79,488.27 625,489 C602.34,509.9 576.06,533.06 556.88,549.76 " fill="none" id="IManagerChild-backto-PipelineManager" style="stroke:#181818;stroke-width:1.0;"/><polygon fill="none" points="622.75,481.55,642.13,472.99,632.32,491.77,622.75,481.55" style="stroke:#181818;stroke-width:1.0;"/></g><!--MD5=[ac441ae3590fd6aa7d9958b960b38041]
reverse link IManagerChild to SamplerManager--><g id="link_IManagerChild_SamplerManager"><path codeLine="54" d="M704,509.33 C704,524.39 704,538.64 704,549.83 " fill="none" id="IManagerChild-backto-SamplerManager" style="stroke:#181818;stroke-width:1.0;"/><polygon fill="none" points="697,509.25,704,489.25,711,509.25,697,509.25" style="stroke:#181818;stroke-width:1.0;"/></g><!--MD5=[d51478a895038fc70a439c20aa79cf5d]
reverse link IManagerChild to DescriptorManager--><g id="link_IManagerChild_DescriptorManager"><path codeLine="55" d="M780.93,480.63 C808.96,505.27 838.81,531.51 859.5,549.7 " fill="none" id="IManagerChild-backto-DescriptorManager" style="stroke:#181818;stroke-width:1.0;"/><polygon fill="none" points="776.02,485.63,765.62,467.17,785.26,475.12,776.02,485.63" style="stroke:#181818;stroke-width:1.0;"/></g><!--MD5=[a0ade8c6f25dc958a3fe27e415bb49a7]
reverse link IManagerChild to GpuMemory--><g id="link_IManagerChild_GpuMemory"><path codeLine="56" d="M784.4,449.97 C851.45,480.79 944.88,523.75 1001.76,549.9 " fill="none" id="IManagerChild-backto-GpuMemory" style="stroke:#181818;stroke-width:1.0;"/><polygon fill="none" points="781.06,456.14,765.81,441.42,786.91,443.42,781.06,456.14" style="stroke:#181818;stroke-width:1.0;"/></g><!--MD5=[c7bcae57dbe0a3b55490cb5ec8e7c093]
@startuml
skinparam classAttributeIconSize 0

interface IVideoOut {
}
class VideoOut << (S,#FF7700) Singleton >> {}

IVideoOut <|- - VideoOut

user ()- IVideoOut : accessVideoOut()

package emulator{
  class Graphics{}
  interface IGraphics {}

  interface IManager{
    accessShaderManager()
    accessPipelineManager()
    accessSamplerManager()
    accessDescriptorManager()
    accessGpuMemory()
  }

  class Manager{}

  class IManagerChild{
    VkDevice
    VkPhysicalDevice
    VkInstance
    manager
    - - -
    void setDevice()
    void setParent()
  }

  class ShaderManager{}
  class PipelineManager{}
  class SamplerManager{}
  class DescriptorManager{}
  class GpuMemory{}
}

VideoOut *- IGraphics : createGraphics()
IGraphics <|- - Graphics

IManager <|- - Manager
Graphics *- "1" Manager

Manager "1" *- "n" IManagerChild

IManager - -o IManagerChild

IManagerChild <|- - ShaderManager
IManagerChild <|- - PipelineManager
IManagerChild <|- - SamplerManager
IManagerChild <|- - DescriptorManager
IManagerChild <|- - GpuMemory

@enduml

PlantUML version 1.2022.7(Mon Aug 22 19:01:30 CEST 2022)
(GPL source distribution)
Java Runtime: Java(TM) SE Runtime Environment
JVM: Java HotSpot(TM) 64-Bit Server VM
Default Encoding: Cp1252
Language: de
Country: DE
--></g></svg>