<?xml version="1.0" encoding="UTF-8" standalone="no"?><svg xmlns="http://www.w3.org/2000/svg" xmlns:xlink="http://www.w3.org/1999/xlink" contentStyleType="text/css" height="201px" preserveAspectRatio="none" style="width:202px;height:201px;background:#FFFFFF;" version="1.1" viewBox="0 0 202 201" width="202px" zoomAndPan="magnify"><defs/><g><path d="M8.5,6 L62.5,6 A3.75,3.75 0 0 1 65,8.5 L72,29.6094 L76.5,29.6094 A2.5,2.5 0 0 1 79,32.1094 L79,58.7188 A2.5,2.5 0 0 1 76.5,61.2188 L8.5,61.2188 A2.5,2.5 0 0 1 6,58.7188 L6,8.5 A2.5,2.5 0 0 1 8.5,6 " fill="#F1F1F1" style="stroke:#181818;stroke-width:0.5;"/><line style="stroke:#181818;stroke-width:0.5;" x1="6" x2="72" y1="29.6094" y2="29.6094"/><text fill="#000000" font-family="sans-serif" font-size="14" lengthAdjust="spacing" textLength="53" x="10" y="22.5332">Modules</text><path d="M117,6 L146,6 A3.75,3.75 0 0 1 148.5,8.5 L155.5,29.6094 L160,29.6094 A2.5,2.5 0 0 1 162.5,32.1094 L162.5,58.7188 A2.5,2.5 0 0 1 160,61.2188 L117,61.2188 A2.5,2.5 0 0 1 114.5,58.7188 L114.5,8.5 A2.5,2.5 0 0 1 117,6 " fill="#F1F1F1" style="stroke:#181818;stroke-width:0.5;"/><line style="stroke:#181818;stroke-width:0.5;" x1="114.5" x2="155.5" y1="29.6094" y2="29.6094"/><text fill="#000000" font-family="sans-serif" font-size="14" lengthAdjust="spacing" textLength="28" x="118.5" y="22.5332">core</text><path d="M84,139 L179,139 A3.75,3.75 0 0 1 181.5,141.5 L188.5,162.6094 L193,162.6094 A2.5,2.5 0 0 1 195.5,165.1094 L195.5,191.7188 A2.5,2.5 0 0 1 193,194.2188 L84,194.2188 A2.5,2.5 0 0 1 81.5,191.7188 L81.5,141.5 A2.5,2.5 0 0 1 84,139 " fill="#F1F1F1" style="stroke:#181818;stroke-width:0.5;"/><line style="stroke:#181818;stroke-width:0.5;" x1="81.5" x2="188.5" y1="162.6094" y2="162.6094"/><text fill="#000000" font-family="sans-serif" font-size="14" lengthAdjust="spacing" textLength="94" x="85.5" y="155.5332">psOff Emulator</text><!--MD5=[5143ca2d4783abcd169ffba1812598cd]
link Modules to core--><g id="link_Modules_core"><path d="M79.25,33.5 C89.24,33.5 99.22,33.5 109.21,33.5 " fill="none" id="Modules-to-core" style="stroke:#181818;stroke-width:1.0;"/><polygon fill="#181818" points="114.43,33.5,105.43,29.5,109.43,33.5,105.43,37.5,114.43,33.5" style="stroke:#181818;stroke-width:1.0;"/></g><!--MD5=[b94fc1d06660aaf928ada1b859bdc9d4]
reverse link core to psOff Emulator--><g id="link_core_psOff Emulator"><path d="M133.83,66.57 C132.86,74.54 131.99,83.06 131.5,91 C130.52,106.95 132.09,124.77 134,138.98 " fill="none" id="core-backto-psOff Emulator" style="stroke:#181818;stroke-width:1.0;"/><polygon fill="#181818" points="134.51,61.17,129.4096,69.5953,133.881,66.1303,137.3461,70.6017,134.51,61.17" style="stroke:#181818;stroke-width:1.0;"/></g><!--MD5=[68544d523d0d03d5cbd57953bc8e80fe]
link core to psOff Emulator--><g id="link_core_psOff Emulator"><path d="M138.5,61.01 C138.5,81.91 138.5,111.14 138.5,133.38 " fill="none" id="core-to-psOff Emulator" style="stroke:#181818;stroke-width:1.0;"/><polygon fill="#181818" points="138.5,138.58,142.5,129.58,138.5,133.58,134.5,129.58,138.5,138.58" style="stroke:#181818;stroke-width:1.0;"/><text fill="#000000" font-family="sans-serif" font-size="13" lengthAdjust="spacing" textLength="55" x="139.5" y="105.4951">callbacks</text></g><!--MD5=[7117173c7469963fe0746921c2036d0a]
@startuml
skinparam classAttributeIconSize 0

package Modules {}

package core {
}

package "psOff Emulator" {

}

Modules -> core

core <- - "psOff Emulator"
core - -> "psOff Emulator" : callbacks

@enduml

PlantUML version 1.2022.7(Mon Aug 22 19:01:30 CEST 2022)
(GPL source distribution)
Java Runtime: Java(TM) SE Runtime Environment
JVM: Java HotSpot(TM) 64-Bit Server VM
Default Encoding: Cp1252
Language: de
Country: DE
--></g></svg>