<?xml version="1.0" encoding="us-ascii" standalone="no"?><svg xmlns="http://www.w3.org/2000/svg" xmlns:xlink="http://www.w3.org/1999/xlink" contentStyleType="text/css" height="215px" preserveAspectRatio="none" style="width:450px;height:215px;background:#FFFFFF;" version="1.1" viewBox="0 0 450 215" width="450px" zoomAndPan="magnify"><defs/><g><!--class IImageHandler--><g id="elem_IImageHandler"><rect codeLine="3" fill="#F1F1F1" height="83.2188" id="IImageHandler" rx="2.5" ry="2.5" style="stroke:#181818;stroke-width:0.5;" width="223" x="84.5" y="7"/><ellipse cx="145.25" cy="23" fill="#B4A7E5" rx="11" ry="11" style="stroke:#181818;stroke-width:1.0;"/><path d="M146.2031,19.6406 L146.2031,26.2969 L147.9219,26.2969 Q148.5313,26.2969 148.7969,26.5313 Q149.0625,26.7656 149.0625,27.1563 Q149.0625,27.5313 148.7969,27.7656 Q148.5313,28 147.9219,28 L142.7813,28 Q142.1719,28 141.9063,27.7656 Q141.6406,27.5313 141.6406,27.1406 Q141.6406,26.7656 141.9063,26.5313 Q142.1719,26.2969 142.7813,26.2969 L144.5,26.2969 L144.5,19.6406 L142.7813,19.6406 Q142.1719,19.6406 141.9063,19.4063 Q141.6406,19.1719 141.6406,18.7813 Q141.6406,18.4063 141.9063,18.1719 Q142.1719,17.9375 142.7813,17.9375 L147.9219,17.9375 Q148.5313,17.9375 148.7969,18.1719 Q149.0625,18.4063 149.0625,18.7813 Q149.0625,19.1719 148.7969,19.4063 Q148.5313,19.6406 147.9219,19.6406 L146.2031,19.6406 Z " fill="#000000"/><text fill="#000000" font-family="sans-serif" font-size="14" font-style="italic" lengthAdjust="spacing" textLength="93" x="165.75" y="28.7285">IImageHandler</text><line style="stroke:#181818;stroke-width:0.5;" x1="85.5" x2="306.5" y1="39" y2="39"/><line style="stroke:#181818;stroke-width:0.5;" x1="85.5" x2="306.5" y1="47" y2="47"/><text fill="#000000" font-family="sans-serif" font-size="14" font-style="italic" lengthAdjust="spacing" textLength="211" x="90.5" y="65.5332">+ImageData getImage_blocking()</text><text fill="#000000" font-family="sans-serif" font-size="14" font-style="italic" lengthAdjust="spacing" textLength="190" x="90.5" y="83.1426">+void notify_done(ImageData)</text></g><!--class ImageHandler--><g id="elem_ImageHandler"><rect codeLine="8" fill="#F1F1F1" height="48" id="ImageHandler" rx="2.5" ry="2.5" style="stroke:#181818;stroke-width:0.5;" width="119" x="136.5" y="155.5"/><ellipse cx="151.5" cy="171.5" fill="#ADD1B2" rx="11" ry="11" style="stroke:#181818;stroke-width:1.0;"/><path d="M154.2656,167.375 Q154.4219,167.1563 154.6094,167.0469 Q154.7969,166.9375 155.0156,166.9375 Q155.3906,166.9375 155.625,167.1953 Q155.8594,167.4531 155.8594,168.0625 L155.8594,169.5156 Q155.8594,170.125 155.625,170.3906 Q155.3906,170.6563 155.0156,170.6563 Q154.6719,170.6563 154.4688,170.4531 Q154.2656,170.2656 154.1563,169.75 Q154.1094,169.3906 153.9219,169.2031 Q153.5938,168.8281 152.9844,168.6094 Q152.375,168.3906 151.75,168.3906 Q150.9844,168.3906 150.3516,168.7188 Q149.7188,169.0469 149.2266,169.7969 Q148.7344,170.5469 148.7344,171.5781 L148.7344,172.6719 Q148.7344,173.9063 149.625,174.7266 Q150.5156,175.5469 152.1094,175.5469 Q153.0469,175.5469 153.7031,175.2969 Q154.0938,175.1406 154.5156,174.7031 Q154.7813,174.4375 154.9297,174.3594 Q155.0781,174.2813 155.2813,174.2813 Q155.6094,174.2813 155.8672,174.5391 Q156.125,174.7969 156.125,175.1406 Q156.125,175.4844 155.7813,175.8906 Q155.2813,176.4688 154.4844,176.7969 Q153.4063,177.25 152.1094,177.25 Q150.5938,177.25 149.3906,176.625 Q148.4063,176.125 147.7188,175.0547 Q147.0313,173.9844 147.0313,172.7031 L147.0313,171.5469 Q147.0313,170.2188 147.6484,169.0703 Q148.2656,167.9219 149.3594,167.3047 Q150.4531,166.6875 151.6875,166.6875 Q152.4219,166.6875 153.0703,166.8516 Q153.7188,167.0156 154.2656,167.375 Z " fill="#000000"/><text fill="#000000" font-family="sans-serif" font-size="14" lengthAdjust="spacing" textLength="87" x="165.5" y="177.2285">ImageHandler</text><line style="stroke:#181818;stroke-width:0.5;" x1="137.5" x2="254.5" y1="187.5" y2="187.5"/><line style="stroke:#181818;stroke-width:0.5;" x1="137.5" x2="254.5" y1="195.5" y2="195.5"/></g><!--class ImageData--><g id="elem_ImageData"><rect codeLine="12" fill="#F1F1F1" height="48" id="ImageData" rx="2.5" ry="2.5" style="stroke:#181818;stroke-width:0.5;" width="100" x="343" y="24.5"/><ellipse cx="358" cy="40.5" fill="#ADD1B2" rx="11" ry="11" style="stroke:#181818;stroke-width:1.0;"/><path d="M360.7656,36.375 Q360.9219,36.1563 361.1094,36.0469 Q361.2969,35.9375 361.5156,35.9375 Q361.8906,35.9375 362.125,36.1953 Q362.3594,36.4531 362.3594,37.0625 L362.3594,38.5156 Q362.3594,39.125 362.125,39.3906 Q361.8906,39.6563 361.5156,39.6563 Q361.1719,39.6563 360.9688,39.4531 Q360.7656,39.2656 360.6563,38.75 Q360.6094,38.3906 360.4219,38.2031 Q360.0938,37.8281 359.4844,37.6094 Q358.875,37.3906 358.25,37.3906 Q357.4844,37.3906 356.8516,37.7188 Q356.2188,38.0469 355.7266,38.7969 Q355.2344,39.5469 355.2344,40.5781 L355.2344,41.6719 Q355.2344,42.9063 356.125,43.7266 Q357.0156,44.5469 358.6094,44.5469 Q359.5469,44.5469 360.2031,44.2969 Q360.5938,44.1406 361.0156,43.7031 Q361.2813,43.4375 361.4297,43.3594 Q361.5781,43.2813 361.7813,43.2813 Q362.1094,43.2813 362.3672,43.5391 Q362.625,43.7969 362.625,44.1406 Q362.625,44.4844 362.2813,44.8906 Q361.7813,45.4688 360.9844,45.7969 Q359.9063,46.25 358.6094,46.25 Q357.0938,46.25 355.8906,45.625 Q354.9063,45.125 354.2188,44.0547 Q353.5313,42.9844 353.5313,41.7031 L353.5313,40.5469 Q353.5313,39.2188 354.1484,38.0703 Q354.7656,36.9219 355.8594,36.3047 Q356.9531,35.6875 358.1875,35.6875 Q358.9219,35.6875 359.5703,35.8516 Q360.2188,36.0156 360.7656,36.375 Z " fill="#000000"/><text fill="#000000" font-family="sans-serif" font-size="14" lengthAdjust="spacing" textLength="68" x="372" y="46.2285">ImageData</text><line style="stroke:#181818;stroke-width:0.5;" x1="344" x2="442" y1="56.5" y2="56.5"/><line style="stroke:#181818;stroke-width:0.5;" x1="344" x2="442" y1="64.5" y2="64.5"/></g><!--class VideoOut--><g id="elem_VideoOut"><rect codeLine="17" fill="#F1F1F1" height="58.7031" id="VideoOut" rx="2.5" ry="2.5" style="stroke:#181818;stroke-width:0.5;" width="94" x="7" y="150"/><ellipse cx="22" cy="171.3516" fill="#FF7700" rx="11" ry="11" style="stroke:#181818;stroke-width:1.0;"/><path d="M20.1094,175.9141 Q19.8906,176.1797 19.75,176.2578 Q19.6094,176.3359 19.4219,176.3359 Q19.0313,176.3359 18.7891,176.0703 Q18.5469,175.8047 18.5469,175.2109 L18.5469,174.0547 Q18.5469,173.4453 18.7891,173.1875 Q19.0313,172.9297 19.4219,172.9297 Q19.7188,172.9297 19.9219,173.0859 Q20.125,173.2422 20.2344,173.6094 Q20.3438,173.9766 20.4531,174.1172 Q20.7031,174.3672 21.3125,174.6328 Q21.9219,174.8984 22.6563,174.8984 Q23.7969,174.8984 24.5156,174.3672 Q24.9844,174.0391 24.9844,173.5703 Q24.9844,173.2578 24.7656,172.9766 Q24.5469,172.6953 24.0313,172.5234 Q23.7031,172.3984 22.5469,172.1797 Q21.1563,171.9141 20.4375,171.5547 Q19.7188,171.1953 19.3047,170.5313 Q18.8906,169.8672 18.8906,169.0859 Q18.8906,167.8672 19.9141,166.9531 Q20.9375,166.0391 22.5781,166.0391 Q23.2344,166.0391 23.7891,166.1797 Q24.3438,166.3203 24.8125,166.6172 Q25.1406,166.3047 25.4688,166.3047 Q25.8438,166.3047 26.0781,166.5625 Q26.3125,166.8203 26.3125,167.4297 L26.3125,168.7109 Q26.3125,169.3203 26.0781,169.5781 Q25.8438,169.8359 25.4688,169.8359 Q25.1563,169.8359 24.9219,169.6484 Q24.7344,169.5078 24.6484,169.0859 Q24.5625,168.6641 24.4219,168.4766 Q24.1719,168.1641 23.6953,167.9531 Q23.2188,167.7422 22.5781,167.7422 Q21.6563,167.7422 21.125,168.1641 Q20.5938,168.5859 20.5938,169.0547 Q20.5938,169.3672 20.8125,169.6641 Q21.0313,169.9609 21.4531,170.1328 Q21.7344,170.2422 23.0391,170.5 Q24.3438,170.7578 25.0469,171.0625 Q25.75,171.3672 26.2188,172.0234 Q26.6875,172.6797 26.6875,173.5859 Q26.6875,174.8516 25.7969,175.6016 Q24.6094,176.6016 22.7813,176.6016 Q22.0781,176.6016 21.4141,176.4297 Q20.75,176.2578 20.1094,175.9141 Z " fill="#000000"/><text fill="#000000" font-family="sans-serif" font-size="12" font-style="italic" lengthAdjust="spacing" textLength="66" x="34" y="167.457">&#171;Singleton&#187;</text><text fill="#000000" font-family="sans-serif" font-size="14" lengthAdjust="spacing" textLength="59" x="37.5" y="184.627">VideoOut</text><line style="stroke:#181818;stroke-width:0.5;" x1="8" x2="100" y1="192.7031" y2="192.7031"/><line style="stroke:#181818;stroke-width:0.5;" x1="8" x2="100" y1="200.7031" y2="200.7031"/></g><g id="elem_IImageHandlerlol9"><ellipse cx="44" cy="48.5" fill="#F1F1F1" rx="5" ry="5" style="stroke:#181818;stroke-width:1.5;"/></g><text fill="#000000" font-family="sans-serif" font-size="14" lengthAdjust="spacing" textLength="28" x="30" y="68.0332">user</text><!--reverse link IImageHandler to ImageHandler--><g id="link_IImageHandler_ImageHandler"><path codeLine="14" d="M196,108.32 C196,129.72 196,137.17 196,155.21 " fill="none" id="IImageHandler-backto-ImageHandler" style="stroke:#181818;stroke-width:1.0;"/><polygon fill="none" points="196,90.32,190,108.32,202,108.32,196,90.32" style="stroke:#181818;stroke-width:1.0;"/></g><!--link IImageHandler to ImageData--><g id="link_IImageHandler_ImageData"><path codeLine="15" d="M307.58,48.5 C319.37,48.5 331.16,48.5 342.95,48.5 " fill="none" id="IImageHandler-ImageData" style="stroke:#181818;stroke-width:1.0;"/></g><!--reverse link VideoOut to ImageHandler--><g id="link_VideoOut_ImageHandler"><path codeLine="18" d="M113.15,179.5 C124.88,179.5 124.61,179.5 136.35,179.5 " fill="none" id="VideoOut-backto-ImageHandler" style="stroke:#181818;stroke-width:1.0;"/><polygon fill="#181818" points="101.15,179.5,107.15,183.5,113.15,179.5,107.15,175.5,101.15,179.5" style="stroke:#181818;stroke-width:1.0;"/></g><!--link IImageHandlerlol9 to IImageHandler--><g id="link_IImageHandlerlol9_IImageHandler"><path d="M49.05,48.5 C60.81,48.5 72.58,48.5 84.35,48.5 " fill="none" id="IImageHandlerlol9-IImageHandler" style="stroke:#181818;stroke-width:1.0;"/></g><!--SRC=[NL1DYy8m4BtFhnZOI-iQwCrB4GGHU_9Gy2hJT2p1caWo5RJslrkx89iUPzudBroClP6dA-gMGjY8U5DrmeLsjZHFnWp0M65_9irO55TgU4-sRjdtWFYBFLL1F6aPS0At98GDotISgjRfCQ59qZdvxaoDreavFqwrivnyrIaC05CRZEDc_myN8Ag4-KkfI3N3rN_fdzVHrEmEdM2UOr8kVtQxrIhBKYp7sYsBixXUOp_0bxTGKG1qOJHEKXMlymO0]--></g></svg>